<?xml version="1.0" encoding="UTF-8"?>
<svg id="uuid-e6f74fea-4487-450d-a70d-8f7f749466eb" xmlns="http://www.w3.org/2000/svg" version="1.1" viewBox="0 0 47.3 47.7">
  <!-- Generator: Adobe Illustrator 29.1.0, SVG Export Plug-In . SVG Version: 2.1.0 Build 142)  -->
  <defs>
    <style>
      .st0 {
        fill: #231f20;
      }
    </style>
  </defs>
  <path class="st0" d="M32.8,40.3c.2-.1.5-.3.7-.5.2-.1.4-.2.6-.4.2-.1.3-.3.5-.4.2-.1.4-.3.6-.4,0,0,0,0,.1-.1,0,0,0,0,.1,0,.2-.1.3-.3.5-.4.1-.1.2-.3.4-.4.1-.1.3-.2.4-.3,0,0,0-.1.1-.2.1-.1.2-.2.3-.3,0,0,.1-.2.2-.3.2-.2.5-.5.7-.8.2-.2.3-.4.5-.6.1-.2.2-.3.3-.5,0,0,.1-.1.2-.2.2-.2.4-.5.5-.7,0,0,0-.2.1-.3,0,0,0-.1.1-.2,0,0,0-.1.1-.2.1-.2.2-.4.3-.6,0-.2.2-.3.3-.5,0-.2.1-.3.2-.5,0-.2.2-.3.2-.5.3-.7.5-1.5.8-2.2,0,0,0-.2,0-.3,0-.3.1-.6.2-.9,0-.1,0-.3,0-.4,0-.2,0-.5.1-.7,0-.2,0-.4,0-.6,0,0,0-.2,0-.2,0-.2,0-.3,0-.5,0,0,0-.2,0-.2,0-.1,0-.2,0-.3,0-.7,0-1.5,0-2.3,0-.4-.1-.8-.2-1.1,0-.4,0-.8-.2-1.2-.2-1-.5-2.1-.9-3,0-.1-.1-.3-.2-.4-.1-.3-.3-.6-.4-.8,0,0,0-.2-.1-.2-.1-.2-.2-.5-.3-.7,0-.1-.2-.3-.3-.4,0-.1-.1-.3-.2-.4-.3-.4-.5-.8-.8-1.2-.1-.1-.2-.2-.3-.4-.1-.1-.2-.3-.3-.4-.1-.1-.2-.2-.3-.3,0,0,0-.1-.1-.2,0,0-.2-.2-.3-.3,0,0-.1,0-.2-.1-.1-.1-.3-.3-.4-.4-.1-.1-.2-.2-.4-.3-.1-.1-.2-.2-.3-.3-.2-.1-.3-.2-.5-.4-.2-.1-.3-.3-.5-.4-.1,0-.2-.1-.3-.2-.1-.1-.3-.2-.4-.3-.1,0-.2-.2-.3-.2,0,0-.2,0-.2-.1-.1,0-.2-.1-.3-.2-.3-.2-.7-.4-1-.5-.1,0-.3-.2-.4-.2-.2-.1-.4-.2-.7-.3-.2,0-.4-.1-.5-.2,0,0-.2,0-.3-.1,0,0-.1,0-.2,0-.1,0-.2,0-.3-.1-.3-.1-.7-.2-1.1-.3-.2,0-.3-.1-.5-.2-.4-.1-.7-.2-1.1-.3-.2,0-.5-.1-.8-.2-.2,0-.3,0-.5,0-.3,0-.6-.1-.9-.1-.1,0-.2,0-.3,0,0,0-.2,0-.2,0-.1,0-.3,0-.4,0-.3,0-.7,0-1,0-.1,0-.3,0-.5,0-.2,0-.4,0-.5,0,0,0,0,0-.1,0-.1,0-.3,0-.4,0,0,0-.1,0-.2,0,0,0-.1,0-.2,0,0,0-.1,0-.2,0,0,0,0,0-.1,0,0,0-.2,0-.2,0-.2,0-.4,0-.6,0,0,0,0,0-.1,0-.1,0-.3,0-.3,0-.3,0-.5.1-.8.2-.1,0-.3,0-.4.1-.1,0-.2,0-.3,0-.2,0-.3.1-.5.2,0,0-.2,0-.3,0-.2,0-.3.1-.5.2-.1,0-.2,0-.3.1-.6.2-1.1.5-1.7.8,0,0-.2.1-.3.2-.6.3-1.3.7-1.9,1.2-.2.1-.3.2-.5.4,0,0-.2.2-.3.2-.2.1-.3.2-.5.4-.3.3-.6.6-.9.9-.2.2-.4.3-.6.5,0,0-.1.1-.2.2,0,0-.2.2-.3.2-.1.1-.2.3-.4.4-.1.1-.2.2-.3.3,0,0,0,.1-.1.2-.2.2-.4.4-.6.7-.1.2-.2.4-.3.5-.2.2-.4.5-.5.7,0,0,0,.2-.1.2-.1.2-.2.4-.3.6,0,.2-.2.4-.3.6,0,0,0,.2-.1.2,0,.2-.2.4-.3.5,0,.1,0,.2-.1.3,0,.1-.1.2-.2.3,0,.1,0,.3-.1.4,0,.1-.1.3-.2.4-.3.9-.5,1.8-.7,2.7,0,.2,0,.4,0,.5,0,.2,0,.4-.1.6,0,.2,0,.3,0,.5,0,.1,0,.3,0,.4,0,.8,0,1.5,0,2.2,0,.4,0,.7.1,1.1,0,.2,0,.3,0,.5,0,.5.1,1,.2,1.4,0,.1,0,.2.1.4,0,.4.2.7.3,1.1,0,0,0,.2,0,.2,0,0,0,.2,0,.3.1.4.3.8.4,1.2,0,.1.1.3.2.4,0,.1,0,.2.1.3.1.3.3.5.4.7.1.2.2.4.3.6,0,0,0,.1,0,.2,0,0,0,0,.1.1,0,0,0,.2.1.3,0,.2.2.3.3.5,0,0,.1.2.2.3,0,.1.2.2.3.4,0,.1.1.2.2.3.1.2.3.3.4.5.1.1.2.3.3.4.1.1.3.3.4.4.1.1.2.3.3.4.2.2.4.3.5.5,0,0,.2.2.3.3.2.1.3.2.5.4.1.1.3.3.4.4.1,0,.2.2.3.2.1.1.2.2.4.3.2.1.3.2.5.3.1,0,.2,0,.3.2.1,0,.3.2.4.3.1,0,.3.1.4.2.5.3,1,.6,1.5.8.2.1.4.2.7.3.2,0,.4.2.7.3,0,0,.2,0,.2,0,.2,0,.4.2.6.2,0,0,.1,0,.2,0,.2,0,.4.2.6.2.2,0,.5,0,.7.1.3,0,.7.2,1.1.2.1,0,.3,0,.4,0,.2,0,.3,0,.5,0,.1,0,.3,0,.4,0,0,0,.2,0,.3,0,0,0,.2,0,.3,0,.2,0,.4,0,.6,0,.1,0,.2,0,.3,0,0,0,.1,0,.2,0,.2,0,.4,0,.6,0,.1,0,.2,0,.4,0,.2,0,.5,0,.7,0,.1,0,.2,0,.3,0,.1,0,.3,0,.4,0,.5,0,1-.1,1.5-.2.2,0,.3,0,.5-.1.2,0,.4,0,.6-.1.1,0,.2,0,.3-.1.2,0,.3,0,.5-.2,0,0,.1,0,.2,0,.1,0,.2,0,.4,0,.2,0,.5-.2.7-.3.1,0,.3-.1.4-.2.1,0,.3-.1.4-.2,0,0,0,0,.1,0,.1,0,.3-.1.4-.2.2,0,.3-.2.5-.3,0,0,.2,0,.3-.1ZM37.3,35.5c-.2,0-.5,0-.6,0,0,0,0,0,0,0,0-.1,0-.3,0-.3,0,0,0,0,.1,0,.1,0,.7,0,.7,0,0,.1-.3.4-.3.4ZM37.9,34.7c0,0-.2,0-.2,0-.3,0-.6,0-.9,0,0-.2,0-.3,0-.5.2,0,.5,0,.7,0,.1,0,.2,0,.3,0,.1,0,.3,0,.4,0,0,.1-.3.4-.4.4ZM38.7,33.7s0,0,0,0c0,0-.2.3-.3.3,0,0-.1,0-.2,0-.1,0-.4,0-.4,0-.2,0-.3,0-.5,0-.1,0-.5,0-.5,0,0,0,0-.1,0-.2,0,0,0-.1,0-.2,0,0,0,0,0,0,.5,0,.9,0,1.4,0,.1,0,.3,0,.4,0h0ZM39.2,32.9s-.3.5-.4.5c-.2,0-.5,0-.7,0-.3,0-.6,0-.8,0-.1,0-.3,0-.4,0,0,0,0-.2,0-.3,0-.2,0-.1.2-.2,0,0,.2,0,.3,0,0,0,.2,0,.3,0,.2,0,.4,0,.7,0,.2,0,.5,0,.7,0,.1,0,.2,0,.3,0,0,0,0,0,0,0ZM39.3,32.6c-.1,0-.3,0-.4,0-.2,0-.6,0-.8,0-.3,0-.6,0-.9,0-.2,0-.3,0-.5,0,0,0,0,0,0,0,0,0,0-.2,0-.3h0s.2,0,.2,0c.1,0,.2,0,.3,0,.1,0,.2,0,.3,0,.2,0,.4,0,.6,0,.1,0,.3,0,.4,0,.2,0,.4,0,.6,0,.1,0,.2,0,.4,0,0,.1-.2.5-.3.5ZM39.8,31.7s0,0-.1.1c-.1,0-.2,0-.3,0-.1,0-.4,0-.5,0-.1,0-.4,0-.4,0-.1,0-.3,0-.4,0-.1,0-.3,0-.4,0-.3,0-.6,0-.9,0h0s0,0,0,0c0-.1,0-.3,0-.4.1,0,.2,0,.3,0,.2,0,.4,0,.5,0,0,0,.2,0,.2,0,.4,0,.8,0,1.1,0,.2,0,.4,0,.5,0,0,0,.2,0,.3,0,0,0,.1,0,.2,0,0,0,0,.3-.1.4ZM40.2,30.9c0,0,0,.2-.2.2,0,0,0,0-.1,0,0,0-.2,0-.3,0-.2,0-.4,0-.6,0,0,0-.2,0-.2,0-.1,0-.4,0-.5,0,0,0,0,0,0,0-.1,0-.2,0-.3,0,0,0-.2,0-.2,0-.3,0-.6,0-.8,0h0s0-.2,0-.2c0,0,0-.2,0-.3,0,0,.5,0,.7,0,0,0,.2,0,.2,0,.2,0,.4,0,.6,0,.1,0,.2,0,.4,0,.1,0,.2,0,.3,0,.2,0,.4,0,.6,0,.2,0,.5,0,.7,0,0,0,0,0,0,0,0,0,0,.2,0,.3ZM40.4,30.2c0,0-.1,0-.2,0-.2,0-.3,0-.5,0,0,0-.2,0-.2,0,0,0-.2,0-.2,0,0,0,0,0,0,0-.2,0-.3,0-.5,0,0,0-.2,0-.3,0,0,0,0,0-.1,0-.2,0-.3,0-.5,0-.1,0-.3,0-.4,0,0,0-.1,0-.2,0,0,0-.4,0-.4,0,0,0,0-.1,0-.2,0,0,0-.2,0-.3h0c.1,0,.2,0,.4,0,.4,0,.8,0,1.2,0,0,0,.2,0,.3,0,.2,0,.4,0,.6,0,0,0,.2,0,.3,0,.2,0,.3,0,.5,0,0,0,.1,0,.2,0,.1,0,.3,0,.4,0,0,0,0,.4-.2.4ZM40.8,29.3c0,0,0,.2-.1.2,0,0-.2,0-.2,0,0,0-.2,0-.2,0,0,0,0,0,0,0-.1,0-.4,0-.5,0,0,0-.1,0-.2,0-.2,0-.4,0-.7,0,0,0-.2,0-.3,0-.1,0-.3,0-.4,0-.2,0-1.4,0-1.4,0,0,0,0-.4,0-.5.2,0,.5,0,.7,0,.2,0,.4,0,.7,0,.4,0,.7,0,1.1,0,.1,0,.2,0,.3,0,0,0,.1,0,.2,0,0,0,.1,0,.2,0,.2,0,.8,0,.9,0,0,0,0,.1,0,.2ZM41.1,28.5c0,.1,0,.2-.1.3-.3,0-.7,0-1,0,0,0-.1,0-.2,0-.1,0-.6,0-.7,0-.2,0-.3,0-.5,0-.1,0-.3,0-.3,0-.1,0-.3,0-.4,0-.4,0-.7,0-1.1,0,0-.1,0-.4,0-.5,0,0,.2,0,.2,0,0,0,.1,0,.2,0,.2,0,.4,0,.6,0,.2,0,.4,0,.6,0,.2,0,.3,0,.5,0,.3,0,.6,0,.9,0,.2,0,.4,0,.6,0,.1,0,.7,0,.8,0,0,0,0,.1,0,.2ZM41.2,28c0,0,0,.1,0,.2-.1,0-.3,0-.4,0-.1,0-.3,0-.4,0-.2,0-.3,0-.5,0-.1,0-.3,0-.4,0-.1,0-.3,0-.4,0,0,0-.2,0-.2,0-.2,0-.4,0-.5,0-.5,0-1,0-1.6,0,0,0,0,0,0,0,0,0,0-.4,0-.4.2,0,.4,0,.5,0,.1,0,.2,0,.3,0,.3,0,.7,0,1,0,.3,0,.6,0,.9,0,.2,0,.3,0,.5,0,0,0,.2,0,.2,0,0,0,.2,0,.2,0,.3,0,.6,0,.8,0,0,.1,0,.2,0,.3ZM41.3,27.3s0,0,0,0c-.1,0-.6,0-.7,0-.1,0-.3,0-.4,0-.2,0-.3,0-.5,0,0,0-.2,0-.2,0,0,0-.2,0-.3,0,0,0-.2,0-.3,0-.2,0-.3,0-.5,0,0,0-.2,0-.3,0,0,0-.2,0-.3,0-.3,0-.5,0-.8,0,0,0-.2,0-.3,0,0-.1,0-.3,0-.5,0,0,0,0,.1,0,.2,0,.5,0,.7,0,.1,0,.2,0,.3,0,0,0,.1,0,.2,0,.1,0,.2,0,.3,0,.2,0,.6,0,.8,0,0,0,.2,0,.2,0,.1,0,.3,0,.5,0,.3,0,.6,0,.8,0,.1,0,.4,0,.5,0,0,0,0,.4,0,.4ZM41.4,26.6s0,0-.1,0c0,0,0,0-.1,0-.3,0-.6,0-.9,0-.1,0-.3,0-.5,0-.1,0-.3,0-.4,0-.3,0-.7,0-1.1,0,0,0-.2,0-.3,0,0,0-.2,0-.2,0-.3,0-.6,0-1,0h0s0,0,0,0c0,0,0-.4,0-.4,0,0,.4,0,.5,0,.3,0,.7,0,1,0,.2,0,.5,0,.7,0,.2,0,.5,0,.7,0,.2,0,.4,0,.6,0,.2,0,.4,0,.6,0,.2,0,.4,0,.6,0,0,0,0,.4,0,.4ZM41.5,25.9c0,0-.1,0-.2,0-.1,0-.4,0-.4,0,0,0-.1,0-.2,0,0,0,0,0-.1,0-.5,0-.9,0-1.4,0-.1,0-.3,0-.4,0-.1,0-.4,0-.5,0-.4,0-.8,0-1.1,0-.1,0-.3,0-.4,0,0,0,0,0,0-.1,0-.1,0-.2,0-.3,0,0,0,0,.1,0,.3,0,.6,0,.9,0,.1,0,.2,0,.3,0,.5,0,.9,0,1.4,0,.2,0,.4,0,.6,0,.4,0,.8,0,1.2,0,0,0,.1,0,.2,0,0,0,0,.4,0,.4ZM41.6,25.2s-.1,0-.2,0c0,0,0,0-.1,0-.3,0-.5,0-.8,0,0,0-.2,0-.3,0-.2,0-.5,0-.7,0,0,0-.1,0-.2,0,0,0-.1,0-.2,0,0,0-.2,0-.2,0-.2,0-.3,0-.5,0,0,0-.2,0-.3,0-.4,0-.8,0-1.2,0h-.2c0-.1,0-.4,0-.5h0s0,0,0,0c0,0,0,0,0,0,.1,0,.3,0,.4,0,.1,0,.3,0,.4,0,.2,0,.5,0,.7,0,0,0,.2,0,.3,0,.2,0,.3,0,.5,0,0,0,.1,0,.2,0,0,0,.2,0,.3,0,0,0,.1,0,.2,0,0,0,.1,0,.2,0,.1,0,.3,0,.4,0,.2,0,.3,0,.5,0,.1,0,.7,0,.8,0,0,0,0,.4,0,.5ZM41.6,24.4c0,0-.2,0-.2,0-.1,0-.4,0-.5,0,0,0-.3,0-.3,0-.1,0-.3,0-.4,0-.3,0-.5,0-.8,0,0,0-.2,0-.2,0-.3,0-.6,0-.9,0,0,0-.3,0-.4,0-.1,0-.3,0-.4,0,0,0-.2,0-.3,0,0,0-.2,0-.2,0-.1,0,0-.4,0-.5h0c0,0,.1,0,.2,0,.2,0,.3,0,.5,0,0,0,.2,0,.3,0,.2,0,.3,0,.5,0,.6,0,1.1,0,1.7,0,.3,0,.5,0,.8,0,.2,0,.3,0,.4,0,0,0,.2,0,.3,0,0,0,.1,0,.2,0,0,0,0,0,0,0,0,0,0,.4,0,.5ZM41.7,23.4c0,0,0,.2,0,.2,0,0,0,0-.1,0,0,0-.2,0-.2,0-.1,0-.3,0-.4,0-.5,0-1,0-1.5,0-.1,0-.3,0-.4,0-.1,0-.4,0-.5,0-.1,0-.2,0-.3,0-.2,0-.4,0-.5,0-.3,0-.6,0-.8,0h0s0,0,0,0c0-.1,0-.3,0-.4h0s0,0,0,0c.3,0,.6,0,1,0,.2,0,.5,0,.7,0,0,0,.2,0,.3,0,0,0,.2,0,.2,0,.4,0,.7,0,1.1,0,.3,0,.5,0,.8,0,0,0,.2,0,.3,0,0,0,.4,0,.4,0,0,0,0,.1,0,.2ZM41.6,22.9s0,0-.1,0c-.1,0-.3,0-.4,0-.2,0-.4,0-.6,0,0,0-.1,0-.2,0,0,0-.2,0-.2,0-.2,0-.4,0-.6,0-.2,0-.4,0-.5,0-.1,0-.3,0-.4,0-.1,0-.4,0-.5,0-.1,0-.3,0-.4,0,0,0-.2,0-.2,0-.1,0-.5,0-.6,0,0,0,0-.1,0-.2,0,0,0-.2,0-.3.1,0,.5,0,.6,0,.1,0,.2,0,.3,0,.3,0,.5,0,.8,0,.1,0,.3,0,.4,0,.3,0,.5,0,.8,0,.4,0,.9,0,1.4,0,.2,0,.3,0,.5,0,0,.1,0,.4,0,.5ZM41.6,22.1c0,0-.5,0-.6,0,0,0-.1,0-.2,0-.2,0-.4,0-.6,0-.1,0-.3,0-.4,0-.1,0-.5,0-.6,0-.1,0-.3,0-.4,0-.3,0-.6,0-.9,0,0,0-.2,0-.2,0-.1,0-.2,0-.3,0,0,0-.2,0-.3,0,0,0-.2,0-.2,0h0s0-.2,0-.2c0,0,0,0,0-.1,0-.2.2-.1.3-.2.2,0,.3,0,.5,0,.2,0,.3,0,.5,0,.2,0,.4,0,.5,0,.7,0,1.4,0,2,0,.1,0,.8,0,.9,0,0,0,0,.1,0,.2,0,0,0,.2,0,.2ZM41.5,21.4s0,0,0,0c0,0,0,0,0,0-.1,0-.2,0-.4,0-.1,0-.3,0-.4,0-.1,0-.3,0-.4,0,0,0-.1,0-.2,0-.2,0-.4,0-.6,0-.2,0-.5,0-.7,0,0,0-.1,0-.2,0,0,0-.2,0-.3,0-.2,0-.3,0-.5,0,0,0-.2,0-.2,0-.1,0-.6,0-.7,0,0,0,0,0,0-.1,0,0,0-.2,0-.3,0,0,.2,0,.3,0,.1,0,.2,0,.3,0,.1,0,.2,0,.3,0,0,0,.2,0,.3,0,.4,0,.8,0,1.1,0,0,0,.2,0,.2,0,.3,0,.6,0,.9,0,.1,0,.2,0,.3,0,.1,0,.6,0,.7,0,0,0,0,.3,0,.4ZM41.4,20.7h0s0,0-.1,0c-.3,0-.5,0-.8,0,0,0-.2,0-.2,0,0,0-.2,0-.3,0-.1,0-.4,0-.6,0,0,0-.3,0-.3,0-.5,0-.9,0-1.4,0-.1,0-.2,0-.3,0-.1,0-.5,0-.6,0,0,0,0-.1,0-.2,0,0,0-.2,0-.2,0,0,.1,0,.2,0,.3,0,.6,0,.9,0,.4,0,.8,0,1.2,0,.2,0,.5,0,.8,0,.2,0,1.3,0,1.4,0,0,0,0,.3,0,.4ZM41.3,20s0,0,0,0c0,0-.2,0-.3,0-.1,0-.3,0-.4,0-.4,0-.8,0-1.3,0-.2,0-.3,0-.5,0-.1,0-.5,0-.6,0-.3,0-.6,0-.9,0,0,0-.2,0-.3,0,0,0-.1,0-.2,0,0,0,0,0,0,0,0,0,0-.4,0-.4,0,0,0,0,.1,0,.1,0,.2,0,.4,0,.2,0,.4,0,.7,0,.2,0,.3,0,.5,0,.1,0,.3,0,.4,0,.2,0,.4,0,.5,0,.2,0,.3,0,.5,0,.1,0,.3,0,.4,0,.2,0,.4,0,.5,0,.1,0,.3,0,.4,0,0,0,.1.3.1.4ZM41.1,19.2h0s-.1,0-.2,0h0s0,0,0,0c0,0-.1,0-.2,0-.2,0-.5,0-.7,0,0,0-.2,0-.3,0,0,0-.1,0-.2,0-.2,0-.4,0-.7,0-.1,0-.3,0-.4,0-.1,0-.3,0-.4,0-.2,0-.4,0-.6,0-.2,0-.5,0-.6,0,0,0,0-.4,0-.4h0s0,0,0,0c.1,0,.2,0,.3,0,.2,0,.4,0,.6,0,.4,0,.7,0,1.1,0,0,0,.1,0,.2,0,0,0,.1,0,.2,0,.2,0,.4,0,.6,0,0,0,.2,0,.3,0,.1,0,.2,0,.3,0,.1,0,.2,0,.4,0,0,0,.2,0,.2,0,.1,0,.1.3.2.5ZM40.7,18.1c0,0,.2.4,0,.4-.1,0-.3,0-.4,0-.3,0-.7,0-1,0-.1,0-.3,0-.3,0,0,0-.2,0-.3,0-.1,0-.5,0-.6,0,0,0-.2,0-.3,0-.1,0-.3,0-.4,0-.3,0-.5,0-.7,0,0,0,0-.4,0-.4.1,0,.6,0,.8,0,.3,0,.5,0,.7,0,.2,0,.3,0,.5,0,.1,0,.3,0,.4,0,.1,0,.2,0,.3,0,.3,0,.5,0,.8,0,0,0,.1,0,.2,0,.1,0,.3,0,.3,0ZM40.5,17.7c0,.2,0,.1,0,.2-.3,0-.5,0-.8,0-.1,0-.3,0-.4,0-.1,0-.3,0-.4,0,0,0-.2,0-.2,0,0,0-.2,0-.3,0-.1,0-.3,0-.4,0,0,0-.1,0-.2,0-.2,0-.4,0-.6,0-.1,0-.3,0-.4,0,0,0,0,0,0,0,0,0,0-.1,0-.2,0-.1,0-.2.1-.2.1,0,.2,0,.3,0,0,0,.2,0,.3,0,0,0,.2,0,.3,0,.4,0,.8,0,1.2,0,.3,0,.6,0,.8,0,.2,0,.5,0,.6,0,0,0,0,.2.1.3ZM40.1,16.6s.2.4.2.5c-.1,0-.4,0-.5,0,0,0-.2,0-.2,0,0,0,0,0-.1,0,0,0-.2,0-.3,0-.1,0-.4,0-.5,0,0,0-.1,0-.2,0-.2,0-.4,0-.6,0,0,0-.2,0-.3,0-.1,0-.3,0-.3,0,0,0-.3,0-.4,0,0,0,0-.4,0-.5h0s.3,0,.3,0c.2,0,.4,0,.6,0,.2,0,.3,0,.5,0,.1,0,.3,0,.4,0,.3,0,.6,0,.9,0,0,0,.2,0,.3,0,0,0,.2,0,.3,0ZM39.8,15.8c0,0,.2.3.2.4,0,0-.1,0-.1,0-.1,0-.4,0-.4,0-.1,0-.3,0-.4,0-.2,0-.4,0-.6,0,0,0,0,0-.1,0-.1,0-.5,0-.6,0-.2,0-.8,0-.9,0,0,0,0-.2,0-.2,0,0,0-.1,0-.2,0,0,.4,0,.5,0,0,0,0,0,0,0,.2,0,.5,0,.7,0,.5,0,.9,0,1.3,0,.1,0,.2,0,.3,0ZM39.6,15.4c0,0,0,.1,0,.2,0,0-.1,0-.2,0-.1,0-.3,0-.4,0,0,0-.1,0-.2,0-.1,0-.4,0-.5,0-.2,0-.3,0-.5,0,0,0-.1,0-.2,0-.1,0-.3,0-.4,0,0,0-.2,0-.2,0,0,0-.2,0-.2,0,0,0,0,0,0,0,0,0,0-.4,0-.4,0,0,.2,0,.3,0,.2,0,.3,0,.5,0,0,0,.2,0,.3,0,.4,0,.8,0,1.1,0,.1,0,.3,0,.4,0,0,0,.1.2.2.3ZM39,14.4c0,0,0,.1.1.2,0,0,0,0,0,.1,0,0,0,.1,0,.2h0s0,0-.1,0c-.2,0-.5,0-.6,0,0,0,0,0-.1,0,0,0-.2,0-.3,0-.3,0-.5,0-.8,0,0,0-.2,0-.3,0,0,0-.2,0-.2,0,0,0,0-.4,0-.5.5,0,1.1,0,1.6,0,.1,0,.5,0,.6,0ZM38.5,13.7c0,0,.3.4.3.5,0,0,0,0,0,0,0,0-.4,0-.5,0-.1,0-.2,0-.3,0-.1,0-.3,0-.5,0,0,0,0,0-.1,0-.2,0-.4,0-.6,0,0-.1,0-.4,0-.5h0c.4,0,.7,0,1.1,0,.2,0,.4,0,.6,0ZM37.9,12.9c0,0,.1,0,.2,0,0,0,.1.2.2.2,0,0,0,.1,0,.2,0,0,0,0,0,0-.3,0-.5,0-.8,0,0,0-.2,0-.2,0,0,0-.3,0-.3,0,0,0,0-.4,0-.5.3,0,.7,0,1,0ZM37.7,12.6h0s0,0,0,0c0,0-.7,0-.8,0,0,0,0-.2,0-.2,0-.1,0-.2,0-.3.2,0,.4,0,.5,0,.1,0,.3.4.4.5ZM36.8,11.4c0,0,.4.3.3.4,0,0-.1,0-.2,0,0,0-.1,0-.1,0,0,0,0-.4,0-.5ZM36.3,36.4c0,0,.1-.1.2-.2,0-.1.1-.3.2-.5.1,0,.3,0,.4,0h0s0,0,0,0c0,.2-.6.6-.7.7,0,0,0,0,0,0ZM10.5,11.9s.3-.3.3-.4c0,0,0,.3,0,.4,0,0-.3,0-.3,0h0ZM9.9,12.7c0-.1.2-.2.2-.3,0,0,.1-.2.2-.2.1,0,.5,0,.6,0,0,0,0,0,0,0,0,.1,0,.3,0,.4h0s0,0,0,0c-.1,0-.3,0-.4,0,0,0,0,0-.1,0-.1,0-.3,0-.4,0h0s0,0,0,0ZM9.4,13.2c0,0,0-.2.2-.2,0,0,.1,0,.2,0,.2,0,.4,0,.6,0,.1,0,.2,0,.3,0,0,0,.1,0,.2,0,0,0,0,0,0,.1,0,.1,0,.2,0,.3h0s-.1,0-.2,0c-.2,0-.3,0-.5,0,0,0-.1,0-.2,0-.1,0-.4,0-.5,0,0,0-.1,0-.2,0,0,0,0-.2.1-.3ZM8.8,14c0,0,.2-.3.3-.3,0,0,.2,0,.2,0,.1,0,.3,0,.4,0,.2,0,.4,0,.6,0,0,0,.2,0,.3,0,0,0,.2,0,.3,0,0,.1,0,.4,0,.4,0,0,0,0,0,0-.1,0-.2,0-.3,0,0,0-.2,0-.2,0-.1,0-.3,0-.4,0,0,0,0,0,0,0,0,0,0,0-.1,0,0,0-.2,0-.3,0-.2,0-.4,0-.5,0,0,0,0-.1,0-.1ZM8.5,14.4c.1,0,.4,0,.5,0,.2,0,.5,0,.7,0,.1,0,.3,0,.4,0,0,0,.1,0,.2,0,0,0,.2,0,.3,0h0s0,0,0,0c0,0,0,.5,0,.5,0,0-.1,0-.2,0-.1,0-.2,0-.3,0-.1,0-.4,0-.5,0-.1,0-.3,0-.4,0-.2,0-.5,0-.6,0,0,0-.2,0-.2,0,0,0-.2,0-.2,0,0,0,.2-.4.3-.5ZM7.9,15.5c0,0,.1-.3.2-.4,0,0,0,0,.1,0,.3,0,.5,0,.8,0,.3,0,.7,0,1,0,.2,0,.6,0,.7,0,0,0,0,.1,0,.2s0,.2,0,.2c0,0,0,0-.1,0-.1,0-.3,0-.4,0-.2,0-.5,0-.7,0,0,0-.3,0-.4,0,0,0-.1,0-.1,0-.2,0-.4,0-.6,0-.1,0-.3,0-.4,0,0,0,0,0,0,0ZM7.8,15.8c.1,0,.2,0,.3,0,.3,0,.6,0,.9,0,0,0,.2,0,.2,0,.3,0,.7,0,1,0,.2,0,.4,0,.5,0,0,0,0,.3,0,.4,0,0-.7,0-.8,0-.1,0-.3,0-.4,0-.1,0-.3,0-.4,0,0,0-.2,0-.2,0-.3,0-.6,0-1,0-.1,0-.2,0-.4,0,0-.2,0-.3.2-.5ZM7.3,16.8c0,0,0-.1,0-.2,0,0,0,0,0,0,.2,0,.4,0,.6,0,.1,0,.2,0,.3,0,.3,0,.6,0,.9,0,.2,0,.4,0,.5,0,.3,0,.6,0,.9,0,0,0,0,0,0,.1,0,.1,0,.3,0,.4,0,0-.2,0-.2,0-.3,0-.6,0-.8,0-.2,0-.4,0-.7,0-.1,0-.4,0-.5,0,0,0-.1,0-.2,0-.2,0-.3,0-.5,0-.2,0-.5,0-.7,0h0s0,0,0,0c0-.1,0-.2.1-.3ZM6.9,17.8c0-.1,0-.4.2-.5h0c.3,0,.6,0,.9,0,.3,0,.6,0,.9,0,0,0,.2,0,.3,0,.1,0,.2,0,.3,0,0,0,.2,0,.3,0,.2,0,.5,0,.7,0,0,0,.2,0,.3,0,0,0,0,.3,0,.4h0s0,0,0,0c0,0-.2,0-.2,0-.2,0-.4,0-.5,0,0,0-.2,0-.3,0,0,0-.1,0-.2,0-.2,0-.4,0-.7,0,0,0-.2,0-.3,0-.1,0-.3,0-.4,0,0,0-.1,0-.2,0,0,0-.2,0-.2,0-.2,0-.6,0-.8,0,0,0,0,0,0,0ZM6.8,18.1s.1,0,.2,0c.2,0,.4,0,.6,0,.2,0,.4,0,.6,0,0,0,.1,0,.2,0,.1,0,.2,0,.4,0,.1,0,.3,0,.4,0,.2,0,.4,0,.6,0,.3,0,.7,0,1,0,0,0,0,.4,0,.4,0,0,0,0,0,0-.2,0-.4,0-.5,0-.1,0-.2,0-.3,0-.1,0-.2,0-.3,0,0,0-.1,0-.2,0-.1,0-.3,0-.4,0,0,0-.1,0-.2,0-.4,0-.8,0-1.1,0-.1,0-.4,0-.5,0-.1,0-.5,0-.5,0,0,0,0-.4,0-.4ZM6.6,18.8s.1,0,.2,0c0,0,.2,0,.2,0,0,0,.2,0,.3,0,.1,0,.2,0,.3,0,.1,0,.3,0,.4,0,.3,0,.6,0,.9,0,.4,0,.7,0,1.1,0,.1,0,.7,0,.8,0,0,0,0,.1,0,.2,0,.1,0,.2,0,.2-.1,0-.3,0-.4,0,0,0-.2,0-.3,0-.3,0-.6,0-.9,0-.1,0-.3,0-.4,0-.4,0-.8,0-1.1,0-.1,0-.4,0-.4,0,0,0,0,0,0,0-.2,0-.4,0-.7,0,0-.1,0-.4.2-.4ZM6.3,19.6s0,0,.1,0c.4,0,.7,0,1.1,0,.1,0,.3,0,.4,0,0,0,.2,0,.3,0,.5,0,1,0,1.5,0,.2,0,.3,0,.5,0,.2,0,.4,0,.6,0,0,0,0,.4,0,.4,0,0-.2,0-.2,0-.1,0-.2,0-.3,0-.3,0-.6,0-.9,0,0,0-.2,0-.3,0-.6,0-1.2,0-1.8,0-.3,0-.5,0-.8,0-.1,0-.2,0-.3,0,0,0,0-.3,0-.4ZM6.1,20.7c0-.1,0-.4.1-.4.1,0,.3,0,.4,0,.2,0,.4,0,.6,0,0,0,.1,0,.2,0,.5,0,1,0,1.5,0,.1,0,.3,0,.4,0,.2,0,.4,0,.6,0,0,0,.2,0,.3,0,.2,0,.4,0,.5,0,0,0,0,.3,0,.4h0s-.2,0-.2,0c-.2,0-.5,0-.7,0-.1,0-.3,0-.4,0,0,0-.3,0-.3,0-.1,0-.3,0-.4,0-.3,0-.5,0-.8,0,0,0-.2,0-.2,0-.1,0-.4,0-.5,0-.3,0-.7,0-1,0h0s0,0,0,0ZM5.9,21.3c0-.3,0-.4.4-.4,0,0,.2,0,.2,0,.1,0,.2,0,.3,0,.2,0,.4,0,.7,0,.1,0,.2,0,.3,0,1,0,2,0,2.9,0,0,.2,0,.3,0,.4,0,0-.3,0-.4,0-.5,0-.9,0-1.4,0-.2,0-.5,0-.7,0,0,0-.2,0-.3,0,0,0,0,0,0,0-.2,0-.4,0-.6,0-.2,0-.5,0-.7,0,0,0-.1,0-.2,0-.1,0-.3,0-.4,0,0,0,0,0,0,0ZM6,21.7c.3,0,.5,0,.8,0,.1,0,.2,0,.4,0,.3,0,.6,0,.9,0,.2,0,.3,0,.5,0,0,0,.1,0,.2,0,.1,0,.3,0,.4,0,.5,0,1,0,1.5,0,0,.2,0,.3,0,.5h0s0,0,0,0c0,0,0,0-.1,0,0,0-.2,0-.3,0,0,0-.2,0-.3,0-.1,0-.3,0-.4,0-.2,0-.4,0-.6,0,0,0-.2,0-.2,0,0,0-.2,0-.3,0-.1,0-.3,0-.4,0-.2,0-.3,0-.5,0,0,0-.2,0-.3,0-.2,0-.4,0-.6,0,0,0-.2,0-.3,0-.2,0-.4,0-.6,0,0,0,0,0,0,0,0-.1,0-.4.1-.4ZM5.9,22.4c0,0,.2,0,.3,0,0,0,.1,0,.2,0,0,0,.2,0,.3,0,.2,0,.4,0,.6,0,.2,0,.3,0,.5,0,.2,0,.4,0,.6,0,.4,0,.8,0,1.1,0,.2,0,1.1,0,1.2,0,0,0,0,.4,0,.5,0,0-.2,0-.2,0-.1,0-.2,0-.3,0,0,0-.2,0-.3,0-.2,0-.5,0-.7,0,0,0-.2,0-.2,0-.2,0-.4,0-.7,0-.3,0-.7,0-1,0-.1,0-.4,0-.5,0-.1,0-.3,0-.4,0-.2,0-.4,0-.7,0,0-.1,0-.4,0-.5ZM5.8,23.1c.7,0,1.3,0,2,0,0,0,.2,0,.2,0,.2,0,.4,0,.6,0,0,0,.2,0,.2,0,.2,0,.4,0,.6,0,.2,0,1.2,0,1.2,0,0,0,0,.1,0,.2,0,.4-.2.1-.4.2-.6,0-1.1,0-1.6,0-.1,0-.4,0-.5,0-.6,0-1.3,0-1.9,0-.2,0-.3,0-.5,0,0,0,0-.1,0-.2,0-.1,0-.2,0-.3ZM5.8,23.9s0,0,.1,0c.5,0,1,0,1.5,0,.1,0,.3,0,.4,0,.4,0,.8,0,1.3,0,0,0,.2,0,.2,0,0,0,.1,0,.2,0,.3,0,.6,0,.9,0,0,0,.2,0,.3,0,0,0,0,.4,0,.5h0s-.3,0-.4,0c-.2,0-.5,0-.7,0,0,0-.2,0-.3,0-.1,0-.2,0-.3,0-.4,0-.7,0-1.1,0,0,0-.1,0-.2,0-.3,0-.6,0-1,0-.1,0-.2,0-.3,0,0,0,0,0-.1,0-.1,0-.3,0-.4,0,0,0,0-.4,0-.4ZM5.8,24.6c.1,0,.2,0,.3,0,.2,0,.5,0,.7,0,0,0,.2,0,.2,0,0,0,.1,0,.2,0,.1,0,.3,0,.4,0,.1,0,.2,0,.3,0,.1,0,.2,0,.3,0,0,0,.2,0,.2,0,.7,0,1.5,0,2.2,0h0s0,0,0,0c0,.1,0,.3,0,.4,0,0,0,0,0,0,0,0-.2,0-.3,0-.2,0-.3,0-.5,0,0,0-.2,0-.2,0-.1,0-.2,0-.3,0,0,0-.2,0-.3,0-.1,0-.3,0-.4,0-.7,0-1.3,0-2,0-.1,0-.2,0-.4,0,0,0-.1,0-.2,0,0,0-.1,0-.2,0,0,0,0-.4,0-.5ZM5.9,25.5h0s0,0,0,0c0,0,.1,0,.2,0,.2,0,.5,0,.7,0,0,0,.3,0,.4,0,.2,0,.3,0,.5,0,0,0,.2,0,.3,0,0,0,.1,0,.2,0,.3,0,.7,0,1,0,0,0,.2,0,.3,0,0,0,.2,0,.3,0,0,0,.2,0,.3,0,.2,0,.4,0,.6,0,0,0,0,0,0,0,0,0,0,.2,0,.3,0,0-.5,0-.6,0-.1,0-.4,0-.5,0-.1,0-.4,0-.5,0-.1,0-.2,0-.3,0-.2,0-.5,0-.7,0-.1,0-.3,0-.4,0-.1,0-.4,0-.5,0-.2,0-.4,0-.5,0,0,0,0,0-.1,0,0,0-.2,0-.2,0-.4,0-.4,0-.4-.4ZM6,26.3c0,0,0-.2,0-.2.1,0,.3,0,.5,0,.4,0,.9,0,1.3,0,.1,0,.3,0,.4,0,.1,0,.3,0,.4,0,0,0,.1,0,.2,0,.2,0,.4,0,.6,0,0,0,.2,0,.2,0,.2,0,.5,0,.8,0,.1,0,.3,0,.3,0,0,0,0,.4,0,.4,0,0-.2,0-.2,0,0,0-.2,0-.3,0-.2,0-.4,0-.6,0,0,0-.2,0-.3,0,0,0-.5,0-.5,0,0,0-.3,0-.3,0,0,0-.2,0-.3,0-.3,0-.6,0-.9,0,0,0-.2,0-.3,0-.1,0-.4,0-.5,0-.1,0-.5,0-.6,0,0,0,0-.1,0-.2ZM6.1,26.9h0s0,0,0,0c.3,0,.7,0,1,0,.2,0,.4,0,.6,0,.3,0,.5,0,.8,0,.1,0,.3,0,.4,0,.2,0,.3,0,.5,0,0,0,.2,0,.2,0,.1,0,.3,0,.4,0,0,0,0,0,.1,0,.2,0,.4,0,.5,0,0,0,0,0,0,0,0,.1,0,.3,0,.4h0s-.3,0-.3,0c-.2,0-.4,0-.6,0-.1,0-.2,0-.3,0,0,0-.2,0-.2,0-.2,0-.7,0-.8,0-.2,0-.3,0-.4,0-.5,0-1.1,0-1.6,0,0,0-.2,0-.3,0,0,0,0-.3,0-.4ZM6.3,28.1c0,0,0-.1,0-.2,0,0,0-.2,0-.2,0,0,0,0,0,0,.1,0,.2,0,.4,0,.3,0,.6,0,.9,0,.1,0,.3,0,.4,0,.7,0,1.4,0,2.1,0,.1,0,.6,0,.7,0,0,0,0,.3,0,.4,0,0,0,0,0,0,0,0,0,0-.1,0-.1,0-.4,0-.5,0-.1,0-.2,0-.3,0,0,0,0,0-.1,0-.2,0-.5,0-.6,0,0,0-.2,0-.3,0-.2,0-.5,0-.6,0-.2,0-.4,0-.6,0-.2,0-.5,0-.6,0-.1,0-.5,0-.6,0ZM6.5,28.8c0,0-.1-.3-.1-.5,0,0,.2,0,.3,0,.2,0,.5,0,.7,0,0,0,.1,0,.2,0,.2,0,.4,0,.6,0,.2,0,.3,0,.5,0,.1,0,.2,0,.4,0,0,0,.2,0,.3,0,.2,0,.4,0,.6,0,.2,0,.7,0,.8,0,0,0,0,.1,0,.2s0,.2,0,.2c0,0-.3,0-.4,0,0,0-.1,0-.2,0,0,0-.2,0-.3,0-.2,0-.4,0-.7,0-.1,0-.3,0-.4,0-.1,0-.3,0-.4,0-.1,0-.4,0-.5,0-.2,0-.3,0-.5,0-.2,0-.8,0-.9,0ZM6.6,29.2s0-.1,0-.1c0,0,.4,0,.5,0,.1,0,.3,0,.4,0,.3,0,.6,0,.8,0,0,0,.1,0,.2,0,.2,0,.3,0,.5,0,.1,0,.2,0,.3,0,.1,0,.2,0,.3,0,.2,0,.4,0,.7,0,.1,0,.2,0,.3,0h0s0,0,0,0c0,0,0,.4,0,.4,0,0,0,0-.1,0-.2,0-.4,0-.6,0,0,0-.2,0-.3,0-.2,0-.5,0-.7,0,0,0-.2,0-.3,0-.2,0-.3,0-.5,0-.1,0-.5,0-.6,0-.1,0-.2,0-.3,0-.1,0-.4,0-.5,0,0,0,0-.2,0-.2ZM7,30.2c0,0-.2-.4-.1-.4.2-.1.6,0,.8,0,.2,0,.5,0,.7,0,.2,0,.3,0,.5,0,0,0,.2,0,.2,0,.4,0,.8,0,1.2,0,.1,0,.3,0,.4,0,0,0,0,.3,0,.4,0,0-1,0-1.2,0-.2,0-.4,0-.6,0-.2,0-.4,0-.7,0-.1,0-.3,0-.4,0,0,0-.2,0-.2,0,0,0-.2,0-.3,0,0,0,0,0-.1,0,0,0-.2,0-.2,0ZM7.3,31s0,0,0-.1c0,0-.1-.2,0-.3,0,0,0,0,0,0,.2,0,.4,0,.6,0h.4c0,0,.2,0,.2,0,0,0,.1,0,.2,0,.2,0,.3,0,.5,0,.3,0,.5,0,.8,0,.2,0,.5,0,.7,0,0,0,0,.4,0,.4,0,0,0,0,0,0-.2,0-.4,0-.6,0-.2,0-.4,0-.6,0,0,0-.2,0-.3,0-.2,0-.4,0-.6,0-.1,0-.3,0-.4,0-.3,0-.5,0-.8,0ZM7.6,31.7c0,0-.2-.3-.2-.4h0c.1,0,.2,0,.3,0,.1,0,.2,0,.3,0,.2,0,.4,0,.6,0,0,0,.2,0,.2,0,0,0,.2,0,.2,0,.2,0,.4,0,.6,0,0,0,.2,0,.3,0,.2,0,.4,0,.6,0,0,.1,0,.3,0,.4h0s0,0-.1,0c-.6,0-1.2,0-1.9,0,0,0-.2,0-.2,0-.1,0-.2,0-.3,0,0,0-.2,0-.2,0,0,0-.2,0-.2,0ZM7.7,32s0,0,0,0c.2,0,.5,0,.7,0,0,0,.1,0,.2,0,0,0,.1,0,.2,0,.1,0,.3,0,.4,0,.2,0,.3,0,.4,0,.1,0,.2,0,.3,0,.2,0,.5,0,.6,0,0,0,0,.3,0,.4h0c0,0-.4,0-.5,0,0,0-.1,0-.2,0-.2,0-.5,0-.7,0,0,0-.2,0-.2,0-.1,0-.2,0-.4,0,0,0-.2,0-.2,0,0,0-.2,0-.2,0,0,0-.1,0-.2,0-.1,0-.2-.4-.3-.5ZM8.7,33.3c0,0-.1,0-.2,0,0,0,0-.1-.1-.2,0-.1-.2-.2-.2-.4.2,0,.3,0,.4,0,.1,0,.2,0,.3,0,.2,0,.4,0,.6,0,.1,0,.2,0,.3,0,.2,0,.4,0,.6,0,0,0,0,0,.1,0,0,0,0,.4,0,.5,0,0,0,0,0,0-.2,0-.3,0-.5,0,0,0-.2,0-.2,0-.1,0-.3,0-.4,0-.2,0-.5,0-.6,0,0,0-.2,0-.3,0ZM9,34c0,0-.3-.3-.3-.4,0,0,.4,0,.5,0,.5,0,.9,0,1.4,0,0,.1,0,.3,0,.4,0,0-.2,0-.2,0,0,0-.2,0-.2,0,0,0-.2,0-.3,0-.1,0-.2,0-.3,0,0,0-.1,0-.2,0,0,0-.1,0-.2,0-.1,0-.2,0-.3,0ZM9.1,34.2h0s0,0,.1,0c.1,0,.2,0,.3,0,.1,0,.3,0,.4,0,.2,0,.5,0,.6,0,0,0,0,0,0,0,0,0,0,.3,0,.4,0,0,0,0,0,0,0,0-.1,0-.2,0,0,0-.3,0-.3,0,0,0,0,0-.1,0-.1,0-.3,0-.4,0-.1,0-.3-.4-.4-.5ZM10.1,35.5c0,0-.4-.4-.4-.4,0,0,0,0,0,0,0,0,.2,0,.3,0,.1,0,.6,0,.6,0,0,0,0,.4,0,.4,0,0,0,0,0,0-.1,0-.4,0-.5,0ZM10.8,36.2s0,0,0,0c-.1,0-.4-.4-.5-.5h0s0,0,0,0c0,0,.1,0,.1,0,0,0,.2,0,.2,0,0,0,0,.4,0,.5,0,0,0,0,0,0ZM33.8,38.6c-.2,0-.4,0-.6,0h0c0,0,.1,0,.2-.1.3,0,.6-.1.8-.3.1,0-.3.4-.4.4ZM20,6.3c.2,0,.3,0,.5-.1.3,0,.5,0,.8-.1.2,0,.4,0,.5,0,.2,0,.5,0,.8-.1.1,0,.2,0,.3,0,.1,0,.2,0,.3,0,.2,0,.5,0,.7,0,.1,0,.3,0,.5,0,.1,0,.2,0,.3,0,.2,0,.3,0,.5,0,0,0,.2,0,.2,0,.1,0,.2,0,.3,0,.1,0,.3,0,.4,0,0,0,.1,0,.2,0,0,0,.1,0,.2,0,0,0,.1,0,.2,0,.3,0,.6,0,.9.1,0,0,0,0,0,0,0,0-.5,0-.6,0,0,0-.1,0-.2,0-.1,0-.3,0-.4,0,0,0-.1,0-.2,0,0,0-.2,0-.3,0,0,0-.1,0-.2,0-.2,0-.5,0-.7,0-.2,0-.4,0-.6,0,0,0-.2,0-.3,0,0,0-.2,0-.2,0-.1,0-.2,0-.3,0,0,0-.1,0-.2,0-.4,0-.9,0-1.3,0,0,0-.2,0-.2,0-.2,0-.4,0-.6,0-.1,0-.4,0-.5,0-.3,0-.6,0-.9,0h0ZM17.6,7c0,0,.2-.1.3-.1,0,0,.1,0,.2,0,0,0,.1,0,.2,0,.2,0,.4-.1.6-.2.1,0,.3,0,.5,0,.2,0,.4,0,.6,0,.1,0,.2,0,.3,0,.2,0,.3,0,.5,0,.2,0,.5,0,.7,0,.8,0,1.6,0,2.4,0,.1,0,.3,0,.4,0,.2,0,.4,0,.6,0,.9,0,1.8,0,2.8,0,.3,0,.6,0,.9,0,.1,0,.3,0,.4,0,.3,0,.5.2.7.3.1,0,.5,0,.6.2,0,0,0,0,0,0,0,0,0,0-.1,0-.1,0-.3,0-.4,0-.1,0-.2,0-.3,0-.1,0-.2,0-.3,0,0,0-.2,0-.2,0-.1,0-.3,0-.4,0,0,0-.2,0-.2,0-.1,0-.3,0-.4,0-.2,0-.6,0-.8,0,0,0-.2,0-.3,0-.1,0-.2,0-.3,0-.1,0-.2,0-.4,0,0,0-.2,0-.2,0,0,0-.2,0-.3,0-.1,0-.2,0-.3,0-.3,0-.6,0-.9,0,0,0-.2,0-.3,0,0,0-.1,0-.2,0,0,0-.1,0-.2,0-.3,0-.5,0-.8,0-.3,0-.6,0-.9,0-.1,0-.3,0-.4,0-.2,0-.5,0-.7,0,0,0-.2,0-.3,0,0,0,0,0,0,0-.3,0-.6,0-.9,0,0,0,0,0-.1,0-.1,0-.2,0-.3,0,0,0-.2,0-.2,0-.4,0-.9,0-1.3,0,0,0,0,0,0,0ZM16.3,7.5s0,0,.1,0c.4-.3,1-.1,1.5-.1.3,0,.6,0,.9,0,0,0,.2,0,.3,0,.2,0,.3,0,.5,0,.6,0,1.2,0,1.8,0,.1,0,.2,0,.3,0,.2,0,.3,0,.5,0,0,0,.1,0,.2,0,0,0,.1,0,.2,0,0,0,.2,0,.2,0,.3,0,.6,0,.9,0,.2,0,.3,0,.4,0,.4,0,.8,0,1.1,0,.2,0,.4,0,.6,0,.3,0,.6,0,.9,0,.2,0,.3,0,.5,0,.7,0,1.4,0,2,0,.1,0,.2,0,.3,0,.2,0,.3,0,.5,0,.2,0,.5,0,.7,0,.2,0,.4.2.6.2.2,0,.4.1.6.2,0,0,0,0,0,0,0,0,0,0,0,0-.1,0-.2,0-.3,0-.1,0-.3,0-.4,0,0,0,0,0-.1,0-.2,0-.5,0-.6,0,0,0-.2,0-.2,0-.2,0-.3,0-.5,0-.1,0-.3,0-.4,0-.1,0-.3,0-.4,0-.2,0-.4,0-.6,0-.2,0-.5,0-.7,0,0,0,0,0,0,0-.1,0-.3,0-.4,0,0,0-.1,0-.2,0-.1,0-.3,0-.4,0-.1,0-.3,0-.4,0,0,0-.2,0-.2,0-.2,0-.4,0-.6,0,0,0-.2,0-.3,0-.2,0-.4,0-.7,0,0,0-.2,0-.2,0-.2,0-.4,0-.6,0-.2,0-.4,0-.7,0,0,0-.1,0-.2,0-.2,0-.4,0-.6,0,0,0-.2,0-.2,0,0,0,0,0-.1,0,0,0-.1,0-.2,0-.7,0-1.4,0-2.2,0,0,0-.2,0-.3,0,0,0-.2,0-.3,0-.1,0-.3,0-.4,0-.3,0-.6,0-.9,0-.1,0-.5,0-.6,0-.1,0-.4,0-.5,0,0,0,0,0-.1,0-.2,0-.3,0-.5,0,0,0,.4-.2.5-.3ZM14.7,8.5h0s.1,0,.1-.1c0,0,.2,0,.2-.1,0,0,.2-.1.3-.1.3,0,.7,0,.9,0,.3,0,.6,0,.8,0,.2,0,.4,0,.7,0,0,0,.2,0,.2,0,.4,0,.9,0,1.4,0,.2,0,.5,0,.7,0,.3,0,.6,0,.8,0,.2,0,.3,0,.5,0,.2,0,.4,0,.7,0,.5,0,1,0,1.4,0,0,0,.1,0,.2,0,0,0,.2,0,.2,0,.1,0,.3,0,.4,0,.2,0,.3,0,.5,0,.2,0,.3,0,.5,0,.3,0,.6,0,1,0,.1,0,.3,0,.4,0,0,0,.2,0,.3,0,0,0,0,0,.1,0,0,0,.2,0,.2,0,.1,0,.3,0,.4,0,.2,0,.3,0,.5,0,.1,0,.2,0,.4,0,.2,0,.4,0,.6,0,0,0,.2,0,.3,0,.4,0,.7,0,1.1,0,.1,0,.3,0,.5,0,.3,0,.7,0,1,0,.2,0,.3,0,.5,0,0,0,.1,0,.2,0,.1,0,.3.2.4.3,0,0-.2,0-.3,0,0,0-.2,0-.3,0,0,0-.2,0-.2,0-.1,0-.2,0-.3,0,0,0-.1,0-.2,0-.2,0-.5,0-.7,0,0,0-.2,0-.2,0,0,0-.2,0-.3,0,0,0,0,0-.1,0-.6,0-1.1,0-1.7,0-.2,0-.4,0-.5,0-.1,0-.2,0-.3,0-.1,0-.4,0-.5,0,0,0-.2,0-.2,0-.1,0-.3,0-.4,0-.1,0-.2,0-.3,0,0,0-.2,0-.3,0,0,0,0,0-.1,0-.2,0-.5,0-.7,0,0,0-.2,0-.3,0-.1,0-.4,0-.5,0,0,0-.1,0-.2,0-.1,0-.3,0-.4,0,0,0-.2,0-.2,0-.4,0-.7,0-1.1,0-.2,0-.5,0-.7,0,0,0,0,0-.1,0-.2,0-.3,0-.4,0-.4,0-.7,0-1.1,0-.1,0-.2,0-.3,0-.2,0-.5,0-.7,0,0,0-.1,0-.2,0-.3,0-.7,0-1,0-.2,0-.4,0-.6,0-.1,0-.4,0-.5,0,0,0-.1,0-.2,0,0,0-.2,0-.2,0-.2,0-.3,0-.5,0s-.2,0-.2,0c0,0-.1,0-.2,0-.2,0-.4,0-.6,0-.1,0-.3,0-.5,0h0s0,0,0,0ZM13.6,9.2s.1,0,.1-.1c.2-.1.3-.2.5-.3.1,0,.3,0,.4,0,.2,0,.3,0,.5,0,.3,0,.6,0,.9,0,.1,0,.3,0,.4,0,.2,0,.3,0,.5,0,.1,0,.2,0,.3,0,.2,0,.4,0,.6,0,.3,0,.6,0,.9,0,0,0,.2,0,.2,0,.2,0,.5,0,.7,0,.4,0,.9,0,1.3,0,.3,0,.6,0,1,0,.2,0,.5,0,.7,0,0,0,.2,0,.3,0,.2,0,.4,0,.5,0,.3,0,.5,0,.7,0,.2,0,.4,0,.6,0,.2,0,.4,0,.6,0,0,0,.2,0,.3,0,0,0,.2,0,.2,0,.2,0,.4,0,.6,0,.3,0,.6,0,1,0,.2,0,.4,0,.5,0,.4,0,.9,0,1.3,0,0,0,.2,0,.3,0,.4,0,.9,0,1.4,0,.2,0,.4,0,.6,0,.2,0,.4,0,.7,0,.2,0,.4,0,.6,0,.1,0,.3,0,.4,0,.2,0,.3,0,.5,0,0,0,.1,0,.2.1,0,0,0,0,.1,0,.1,0,.2.2.3.2,0,0,0,0,0,0-.1,0-.2,0-.4,0-.1,0-.3,0-.4,0,0,0,0,0-.1,0-.3,0-.5,0-.8,0-.3,0-.5,0-.8,0,0,0-.2,0-.2,0,0,0-.2,0-.2,0-.1,0-.3,0-.4,0,0,0-.4,0-.4,0-.1,0-.3,0-.4,0,0,0-.2,0-.3,0-.3,0-.6,0-.9,0-.1,0-.2,0-.3,0,0,0-.1,0-.2,0-.2,0-.5,0-.7,0,0,0-.2,0-.2,0-.2,0-.6,0-.8,0-.1,0-.3,0-.4,0-.3,0-.7,0-1.1,0-.1,0-.4,0-.5,0,0,0-.1,0-.2,0-.2,0-.4,0-.5,0-.5,0-1,0-1.6,0-.3,0-.5,0-.8,0,0,0-.2,0-.2,0,0,0-.2,0-.3,0-.2,0-.3,0-.5,0,0,0-.1,0-.1,0-.2,0-.3,0-.5,0s-.2,0-.2,0c-.3,0-.5,0-.8,0,0,0-.2,0-.2,0-.3,0-.7,0-1,0,0,0-.2,0-.3,0,0,0-.1,0-.2,0-.4,0-.9,0-1.3,0-.2,0-.6,0-.8,0,0,0,0,0,0,0-.2,0-.4,0-.7,0-.2,0-.5,0-.7,0h0s0,0,0,0ZM12.6,9.9s0,0,0,0c.1,0,.4-.4.6-.4.3,0,.5,0,.8,0,.1,0,.3,0,.4,0,.2,0,.3,0,.5,0,.2,0,.5,0,.7,0,.5,0,.9,0,1.4,0,.1,0,.2,0,.3,0,.2,0,.5,0,.7,0,.1,0,.3,0,.4,0,.1,0,.3,0,.4,0,.2,0,.3,0,.5,0,.3,0,.7,0,1.1,0,.2,0,.3,0,.5,0,0,0,.2,0,.3,0,.2,0,.3,0,.5,0,.3,0,.5,0,.8,0,.1,0,.3,0,.4,0,.2,0,.3,0,.5,0,0,0,.2,0,.3,0,0,0,.1,0,.2,0,0,0,.2,0,.2,0,.2,0,.4,0,.6,0,0,0,.1,0,.2,0,.1,0,.2,0,.3,0,.2,0,.3,0,.5,0,0,0,.2,0,.3,0h.5c.1,0,.3,0,.4,0,.2,0,.4,0,.7,0,.1,0,.2,0,.3,0,0,0,.2,0,.3,0,.1,0,.3,0,.4,0,.3,0,.6,0,.9,0,.5,0,1.1,0,1.6,0,.2,0,.3,0,.5,0,.1,0,.2,0,.3,0,.3,0,.5,0,.8,0,.2,0,.3,0,.5,0,.1,0,.2,0,.3,0,.1,0,.2,0,.3,0,.2,0,.4,0,.6,0,0,0,.5.3.5.4,0,0,0,0,0,0-.1,0-.3,0-.3,0-.2,0-.5,0-.7,0,0,0,0,0-.1,0,0,0-.2,0-.2,0-.2,0-.5,0-.6,0-.1,0-.2,0-.3,0-.2,0-.5,0-.7,0-.1,0-.4,0-.5,0-.5,0-1,0-1.5,0-.2,0-.4,0-.7,0,0,0-.2,0-.3,0-.2,0-.4,0-.6,0,0,0-.2,0-.3,0-.2,0-.4,0-.5,0,0,0-.2,0-.2,0,0,0,0,0-.1,0-.2,0-.4,0-.6,0,0,0-.2,0-.2,0-.1,0-.5,0-.6,0-.1,0-.4,0-.5,0,0,0,0,0,0,0-.2,0-.4,0-.6,0,0,0-.1,0-.2,0-.2,0-.4,0-.6,0,0,0,0,0-.1,0-.1,0-.4,0-.5,0h-.6c0,0-.2,0-.2,0-.1,0-.4,0-.5,0,0,0,0,0-.1,0-.2,0-.5,0-.7,0,0,0-.2,0-.3,0-.1,0-.3,0-.4,0,0,0-.2,0-.3,0,0,0-.2,0-.2,0,0,0-.2,0-.2,0,0,0-.2,0-.3,0-.1,0-.3-.1-.5,0-.2,0-.4,0-.6,0,0,0-.2,0-.2,0,0,0-.1,0-.2,0,0,0,0,0-.1,0-.3,0-.6,0-.8,0,0,0-.1,0-.2,0-.3,0-.5,0-.8,0-.1,0-.4,0-.5,0,0,0-.2,0-.2,0,0,0-.3,0-.3,0,0,0,0,0-.1,0-.2,0-.5,0-.7,0,0,0-.2,0-.2,0-.4,0-.7,0-1,0,0,0,0,0,0,0ZM11.7,10.7c0,0,0-.2.1-.2,0,0,.2-.2.3-.3.2,0,.4,0,.7,0,.3,0,.6,0,.9,0,.3,0,.5,0,.8,0,.2,0,.3,0,.5,0,.6,0,1.2,0,1.8,0,0,0,.1,0,.2,0,.1,0,.2,0,.4,0,.4,0,.7,0,1.1,0,.4,0,.9,0,1.3,0,.2,0,.5,0,.8,0,.2,0,.3,0,.5,0,.4,0,.9,0,1.3,0,.3,0,.6,0,.9,0,0,0,.2,0,.2,0,.1,0,.3,0,.4,0,0,0,.2,0,.2,0,0,0,.1,0,.2,0,0,0,.2,0,.3,0,.1,0,.2,0,.4,0,.1,0,.2,0,.3,0,.5,0,1,0,1.4,0,.2,0,.3,0,.5,0,.3,0,.6,0,.9,0,.3,0,.6,0,.9,0,.2,0,.3,0,.5,0,0,0,.2,0,.3,0,.4,0,.9,0,1.3,0,.4,0,.8,0,1.2,0,0,0,.2,0,.2,0,.3,0,.6,0,1,0,.1,0,.3,0,.4,0,.1,0,.2,0,.4,0,.3,0,.5,0,.8,0,.1,0,.3,0,.4,0,0,0,.1,0,.2.1,0,0,.2.2.2.2,0,0-.3,0-.4,0-.2,0-.6,0-.8,0-.4,0-.9,0-1.3,0-.1,0-.2,0-.4,0,0,0-.1,0-.2,0,0,0-.1,0-.2,0-.1,0-.4,0-.5,0-.2,0-.5,0-.7,0,0,0-.2,0-.2,0,0,0-.1,0-.2,0,0,0,0,0-.1,0,0,0-.1,0-.2,0-.1,0-.3,0-.4,0-.1,0-.3,0-.4,0,0,0,0,0-.1,0,0,0-.2,0-.2,0-.3,0-.6,0-.9,0,0,0-.2,0-.3,0,0,0,0,0,0,0-.2,0-.3,0-.5,0-.3,0-.5,0-.8,0-.1,0-.4,0-.5,0,0,0-.1,0-.2,0-.2,0-.3,0-.5,0-.1,0-.3,0-.4,0-.4,0-.9,0-1.3,0-.1,0-.3,0-.4,0-.4,0-.9,0-1.3,0-.1,0-.3,0-.4,0-.1,0-.3,0-.4,0,0,0-.2,0-.3,0,0,0-.2,0-.3,0,0,0-.3,0-.4,0,0,0-.1,0-.2,0,0,0-.1,0-.2,0-.2,0-.4,0-.6,0,0,0-.2,0-.3,0-.1,0-.3,0-.4,0-.4,0-.7,0-1.1,0-.1,0-.2,0-.3,0-.2,0-.3,0-.5,0,0,0-.2,0-.3,0-.1,0-.3,0-.4,0-.3,0-.6,0-.9,0-.1,0-.3,0-.4,0-.1,0-.3,0-.4,0-.2,0-.5,0-.7,0-.4,0-.7,0-1.1,0,0,0-.3,0-.3,0-.1,0-.3,0-.4,0,0,0-.2,0-.3,0,0,0-.2,0-.3,0,0,0,0,0,0,0ZM14,38.7c-.3,0-.4,0-.6-.2,0,0-.1,0-.2-.2.3,0,.6.1.9.2.2,0,.5.1.7.1h0c-.1,0-.2,0-.4,0-.1,0-.2,0-.3,0,0,0,0,0-.1,0ZM14.3,39.1c0,0-.2,0-.2-.2.4,0,.8,0,1.2,0,.3,0,.5,0,.8,0,.4,0,.7,0,1,0,.3,0,.5,0,.7,0,.4,0,.8.1,1.2.2.3,0,.6,0,.9.1,0,0,0,0,0,0,0,0,0,0,0,0-.2,0-.5,0-.7,0,0,0-.2,0-.2,0,0,0-.1,0-.2,0-.2,0-.4,0-.7,0-.1,0-.3,0-.5,0-.1,0-.3,0-.3,0-.3,0-.6,0-.9,0,0,0-.2,0-.3,0-.1,0-.3,0-.4,0,0,0-.2,0-.3,0-.2,0-.4,0-.6,0-.2,0-.3-.2-.4-.2ZM16,40.1c-.3,0-.5-.3-.8-.4h0c.3,0,.5,0,.8,0,.1,0,.3,0,.4,0,.2,0,.4,0,.6,0,.2,0,.3,0,.5,0,0,0,.2,0,.2,0,.1,0,.3,0,.4,0,.4,0,.9,0,1.3,0,.3,0,.7,0,1,0,0,0,0,0,.1,0,.1,0,.2,0,.3,0,.3,0,.6.2.8.4,0,0,0,0,0,0,0,0,0,0,0,0,0,0-.1,0-.2,0-.2,0-.4,0-.6,0,0,0-.1,0-.2,0,0,0-.2,0-.3,0-.2,0-.4,0-.6,0,0,0-.2,0-.3,0-.2,0-.4,0-.6,0-.1,0-.3,0-.4,0-.1,0-.2,0-.3,0-.1,0-.3,0-.4,0-.4,0-.9,0-1.3,0-.2,0-.3,0-.5,0ZM18.6,40.9c0,0-.2,0-.3,0-.1,0-.2,0-.3,0,0,0-.2,0-.2,0-.1,0-.2,0-.4,0-.1,0-.3,0-.4-.1,0,0-.1,0-.2,0h0c0,0,.1,0,.2,0,.2,0,.5,0,.8,0,.2,0,.4,0,.5,0,.3,0,.5,0,.8,0,.1,0,.2,0,.3,0,.2,0,.4,0,.6,0,.3,0,.5,0,.8,0,.3,0,.6,0,.9,0,.1,0,.3,0,.4,0,.2,0,.4.3.5.4,0,0,0,0,0,0,0,0-.3,0-.4,0-.1,0-.3,0-.4,0-.3,0-.5,0-.8,0,0,0-.2,0-.3,0-.3,0-.5,0-.8,0-.4,0-.7,0-1.1,0-.1,0-.2,0-.4,0ZM23.1,41.8s0,0-.1,0c-.2,0-.4,0-.6-.1-.1,0-.2,0-.3,0-.1,0-.3,0-.4,0-.1,0-.2,0-.4,0-.7,0-1.4-.2-2.1-.4-.1,0-.4,0-.4-.1.3,0,.7,0,1,0,.3,0,.6,0,.9,0,0,0,.2,0,.3,0,0,0,.2,0,.3,0,.1,0,.2,0,.4,0,0,0,.2,0,.2,0,0,0,.2,0,.3,0,.2,0,.6,0,.8,0,.1,0,.2.3.2.5,0,0,0,0,0,0ZM23.5,41h0s0,0,0,0c0-.1-.1-.2-.2-.3-.1-.2-.3-.3-.4-.5-.4-.4-.9-.7-1.4-.9-.1,0-.2,0-.3-.1-.1,0-.2-.1-.3-.2-.1,0-.2,0-.3,0-.1,0-.2,0-.4,0-.3,0-.5-.1-.8-.2-.2,0-.5,0-.7,0-.2,0-.4,0-.6,0-.9,0-1.8-.2-2.6-.3-.3,0-.6,0-.9-.1-.3,0-.6-.1-.8-.2-.1,0-.3,0-.4-.1-.1,0-.3-.1-.4-.2,0,0-.2,0-.3-.1,0,0-.1,0-.2-.1,0,0,0,0,0,0-.2-.2-.4-.4-.6-.7-.1-.2-.2-.4-.3-.6,0-.1,0-.2,0-.3-.1-.5,0-1-.1-1.5,0-.1,0-.2,0-.3,0-.4,0-.8,0-1.2,0,0,0-.2,0-.3,0-.4,0-.8,0-1.2,0-.3,0-.5,0-.8,0-1.1,0-2.2,0-3.2,0-.2,0-.3,0-.5,0-.2,0-.3,0-.5,0,0,0-.2,0-.2,0-.2,0-.5,0-.7,0-.2,0-.4,0-.6,0-.1,0-.3,0-.4,0-.1,0-.2,0-.3,0-.1,0-.2,0-.3,0-.2,0-.4,0-.7,0-.1,0-.3,0-.4,0-.1,0-.3,0-.4,0-.2,0-.4,0-.5,0-.2,0-.3,0-.5,0-.4,0-.8,0-1.1,0,0,0-.2,0-.2,0-.2,0-.3,0-.5,0-.1,0-.3,0-.4,0-.7,0-1.4,0-2,0-.2,0-.5,0-.7,0-.2,0-.3,0-.5,0-.1,0-.2,0-.3,0-.6,0-1.2,0-1.7,0-.2,0-.4,0-.6,0-.2,0-.5,0-.7,0-.2,0-.3,0-.5,0-.1,0-.3,0-.4,0,0,0,0,0,0,.2,0,.5,0,.8,0,.3,0,.6,0,1,0,.3,0,.6,0,.9,0,.2,0,.3,0,.5,0,.3,0,.6,0,.9,0,.4,0,.8,0,1.2,0,.1,0,.2,0,.3,0,.2,0,.3,0,.5,0,.1,0,.3,0,.4,0,.2,0,.4,0,.5,0,.3,0,.6,0,.8,0,.1,0,.3,0,.4,0,.4,0,.8,0,1.2,0,.3,0,.5,0,.8,0,.2,0,.4,0,.7,0,.2,0,.3,0,.5,0,.1,0,.3,0,.4,0,.2,0,.3,0,.5,0,.1,0,.3,0,.4,0,.3,0,.5,0,.8,0,.1,0,.2,0,.4,0,.7,0,1.4,0,2.1,0,.2,0,.3,0,.5,0,.3,0,.6,0,1,0,0,0,.1,0,.2,0,.3,0,.6,0,.9,0,.1,0,.2,0,.3,0,.1,0,.3,0,.4,0,.2,0,.4,0,.6,0,.1,0,.3,0,.4,0,.1,0,.2,0,.3,0,.1,0,.3,0,.5,0,.1,0,.2,0,.3,0,0,0,.2,0,.3,0,0,0,.2,0,.3,0,0,0,.2,0,.3,0,.2,0,.3,0,.5,0,.3,0,.5,0,.8,0,.1,0,.3,0,.4,0,0,0,.2,0,.3,0,0,0,.2,0,.3,0,0,0,0,0,0,0,0,0,0,.2,0,.4,0,.4,0,.7,0,1.1,0,.2,0,.5,0,.7,0,0,0,.2,0,.2,0,.2,0,.3,0,.5,0,.2,0,.3,0,.5,0,.2,0,.4,0,.6,0,0,0,.2,0,.2,0,.1,0,.3,0,.4,0,.1,0,.3,0,.4,0,.2,0,.3,0,.5,0,.1,0,.3,0,.4,0,.2,0,.4,0,.6,0,0,0,.2,0,.2,0,.2,0,.4,0,.5,0,.3,0,.6,0,.9,0,0,0,.1,0,.2,0,.1,0,.3,0,.4,0,.2,0,.3,0,.5,0,.1,0,.2,0,.4,0,0,0,.1,0,.2,0,0,0,.2,0,.3,0,.3,0,.6,0,1,0,.2,0,.3,0,.5,0,0,0,.1,0,.2,0,.1,0,.2,0,.3,0,0,0,.1,0,.2,0,.1,0,.2,0,.4,0,.2,0,.3,0,.5,0,.5,0,.9,0,1.4,0,.2,0,.4,0,.6,0,.1,0,.2,0,.3,0,.2,0,.4,0,.7,0,.1,0,.2,0,.4,0,.5,0,.9,0,1.4,0,.3,0,.7,0,1,0,.2,0,.3,0,.5,0,0,0,.1,0,.2,0,.1,0,.2,0,.4,0,.3,0,.6,0,.9,0,.3,0,.7,0,1.1,0,0,0,.2,0,.3,0,0,0,.1,0,.2,0,.2,0,.4,0,.6,0,.2,0,.4,0,.5,0,.1,0,.2,0,.3,0,.1,0,.2,0,.4,0,.2-.2.5-.3.7,0,.1-.2.2-.4.4,0,0-.2.1-.2.2-.1.1-.3.2-.4.3-.1,0-.2,0-.3.1-.2,0-.4.2-.6.3-.2,0-.4.1-.6.2,0,0,0,0-.1,0-.1,0-.2,0-.3,0,0,0-.2,0-.3,0-.1,0-.2,0-.4,0,0,0,0,0-.1,0,0,0-.1,0-.2,0-.1,0-.4,0-.4,0,0,0-.2,0-.3,0,0,0-.1,0-.2,0,0,0-.2,0-.3,0,0,0,0,0-.1,0,0,0-.1,0-.2,0,0,0-.1,0-.2,0-.1,0-.3,0-.4,0,0,0,0,0-.1,0-.1,0-.2,0-.3,0,0,0-.1,0-.2,0,0,0,0,0,0,0-.1,0-.2,0-.3,0,0,0,0,0-.1,0,0,0,0,0,0,0,0,0,0,0,0,0,0,0,0,0-.1,0,0,0-.1,0-.2,0,0,0,0,0-.1,0,0,0-.2,0-.2,0,0,0-.1,0-.2,0,0,0-.1,0-.2,0,0,0-.1,0-.1,0,0,0,0,0,0,0,0,0-.2,0-.3,0,0,0-.1,0-.1,0-.2,0-.3,0-.5.1-.1,0-.2,0-.3.1-.2,0-.5.2-.6.3-.1.1-.3.2-.5.3-.4.4-.6.8-.8,1.3h0ZM28.2,41.2c-.2,0-.4.1-.6.2-.1,0-.3,0-.4,0-.2,0-.4,0-.5.1,0,0,0,0-.1,0-.1,0-.2,0-.3,0,0,0-.3,0-.4,0-.1,0-.2,0-.3,0-.1,0-.4,0-.4,0,0,0,0,0,0,0-.3,0-.5,0-.8,0h0s0,0,0,0c0-.2,0-.4.2-.5.3,0,.7,0,1,0,.3,0,.6,0,.9,0,.1,0,.2,0,.3,0,.2,0,.5,0,.7,0,.2,0,.4,0,.7,0,0,0,0,0,0,0ZM30.3,40.5h0s0,0,0,0c-.2,0-.3.1-.5.2,0,0-.2,0-.3.1-.1,0-.2,0-.3.1-.1,0-.4,0-.5,0-.1,0-.2,0-.3,0,0,0-.2,0-.2,0,0,0-.2,0-.2,0,0,0,0,0,0,0-.2,0-.3,0-.5,0,0,0-.2,0-.3,0,0,0-.2,0-.2,0-.1,0-.3,0-.3,0,0,0-.1,0-.2,0,0,0-.2,0-.3,0,0,0,0,0-.1,0-.1,0-.5,0-.6,0,0,0-.2,0-.3,0-.2,0-.3,0-.5,0,0-.2.2-.5.4-.5.1,0,.3,0,.4,0,.5,0,1,0,1.4,0,.2,0,.5,0,.7,0,.2,0,.3,0,.5,0,0,0,.2,0,.2,0,.1,0,.4,0,.6,0,.2,0,.5,0,.7,0,.1,0,.2,0,.3,0,.2,0,.3,0,.5,0,0,0,0,0,0,0ZM32,39.7c0,0-.2.1-.3.1-.2,0-.4.2-.6.3-.1,0-.2.1-.3.1-.2,0-.5,0-.7,0-.1,0-.2,0-.3,0,0,0-.2,0-.3,0-.1,0-.2,0-.3,0-.1,0-.3,0-.4,0-.2,0-.5,0-.7,0-.1,0-.3,0-.4,0,0,0-.2,0-.2,0-.1,0-.3,0-.4,0-.1,0-.5,0-.6,0-.4,0-.7,0-1.1,0h0s.2-.2.3-.2c.2,0,.3-.2.5-.2.1,0,.2,0,.3,0,.3,0,.6,0,.9,0,.2,0,.5,0,.7,0,.6,0,1.2,0,1.8,0,.2,0,.4,0,.6,0,.1,0,.2,0,.3,0,.5,0,.9,0,1.4,0h0s0,0,0,0c0,0,0,0,0,0ZM32.3,39.4c-.4,0-.8,0-1.2,0-.2,0-.4,0-.6,0-.2,0-.4,0-.5,0-.1,0-.3,0-.4,0-.2,0-.5,0-.7,0,0,0-.1,0-.1,0-.3,0-.6,0-.9,0h0s0,0,0,0c0,0,0,0,0,0,.1,0,.3,0,.5,0,.3,0,.5,0,.8,0,.4,0,.7,0,1.1-.1.2,0,.4,0,.5,0,.2,0,.3,0,.5,0,.2,0,.3,0,.5,0,.1,0,.3,0,.4,0,.1,0,.2,0,.3,0,0,0,.1,0,.2,0,0,0,.2,0,.2,0h.2s0,0,0,0c0,0,0,0,0,0,0,0-.2.2-.4.2,0,0-.2.1-.2.2,0,0-.1,0-.2,0,0,0-.1,0-.2,0Z"/>
  <path class="st0" d="M24.4,21.3c.2,0,.3-.2.5-.3.2-.1.5-.2.8-.3.2,0,.4-.1.6-.2,0,0,.2,0,.2,0,0,0,.1-.2,0-.3,0,0-.1,0-.2,0,0,0-.2,0-.3,0,0,0-.1,0-.2,0-.2,0-.4.1-.6.2-.2,0-.4.2-.5.3,0,0-.1,0-.2.1-.1,0-.3.2-.4.4h0c0,0,.2,0,.3,0Z"/>
  <path class="st0" d="M21,20.6c.6.2,1.1.3,1.6.6,0,0,.2.1.3.2,0,0,.2.1.3.2,0,0,0,0,.1,0,0-.1-.5-.5-.6-.5-.2,0-.3-.2-.5-.2,0,0-.1,0-.2,0-.1,0-.2,0-.3-.1-.1,0-.3-.1-.4-.1,0,0-.1,0-.2,0-.2,0-.4-.1-.6-.1-.1,0,0,.2,0,.3.1,0,.3,0,.5.1Z"/>
  <path class="st0" d="M35.4,20.3c0-.2,0-.5,0-.7,0,0,0-.2,0-.2,0-.2,0-.3,0-.5,0-.1,0-.3,0-.4,0-1.1,0-2.1,0-3.1,0-.6,0-1.1,0-1.7,0-.3,0-.7,0-1,0-.3,0-.6,0-.9h0s-.2,0-.2,0c-.3,0-.6,0-.9,0-.2,0-.4,0-.6,0,0,0-.1,0-.2,0,0,0-.2,0-.2,0-.1,0-.2,0-.3,0-.4,0-.8,0-1.1,0-.1,0-.4,0-.5,0-.2,0-.4,0-.6,0-.1,0-.4,0-.5,0,0,0,0,0-.1,0-.1,0-.3,0-.4,0-.2,0-.4,0-.6,0-.2,0-.4,0-.6,0,0,0,0,0-.1,0-.2,0-.3,0-.5,0s-.2,0-.3,0c0,0-.1,0-.2,0-.1,0-.3,0-.4,0-.3,0-.7,0-1,0-.1,0-.3,0-.4,0,0,0,0,0-.1,0,0,0,0,0-.1,0-.2,0-.5-.1-.7,0,0,0,0,0,0,0,0,0-.2,0-.2,0-.5,0-1,0-1.4,0-.1,0-.3,0-.4,0,0,0-.1,0-.2,0-.1,0-.2,0-.4,0-.2,0-.5,0-.7,0-.1,0-.2,0-.3,0,0,0-.2,0-.2,0,0,0-.2,0-.3,0-.2,0-.4,0-.6,0,0,0-.1,0-.2,0-.1,0-.3,0-.4,0-.2,0-.4,0-.6,0,0,0-.2,0-.3,0-.2,0-.5,0-.7,0-.1,0-.4,0-.6,0-.1,0-.4,0-.5,0-.3,0-.6,0-.9,0-.1,0-.3,0-.4,0,0,0-.1,0-.2,0-.1,0-.3,0-.4,0-.1,0-.3,0-.3,0-.4,0-.8,0-1.2,0-.1,0-.3,0-.4,0-.1,0-.5,0-.6,0,0,0-.2,0-.3,0,0,0,0,.5,0,.7,0,.1,0,.2,0,.3,0,.1,0,.2,0,.3,0,.2,0,.3,0,.5,0,.4,0,.8,0,1.2,0,.1,0,.2,0,.3,0,.1,0,.2,0,.3,0,.1,0,.2,0,.3,0,.2,0,.4,0,.7,0,.4,0,.8,0,1.2,0,.2,0,.3,0,.5,0,0,0,.1,0,.1,0,0,0,.2,0,.3,0,.7,0,1.3,0,2,0,.3,0,.6,0,.9,0,.1,0,.3,0,.4,0,.2,0,.4,0,.6,0,.4,0,.9,0,1.3,0,.2,0,.3,0,.5,0,.2,0,.4,0,.6,0,.8,0,1.6,0,2.4,0,.2,0,.4,0,.6,0,.2,0,.4,0,.6,0,0,0,.2,0,.3,0,.7,0,1.4,0,2.1,0,.3,0,.6,0,.9,0,.1,0,.3,0,.4,0,0,0,.1,0,.2,0,0,0,.1,0,.2,0,.2,0,.3,0,.5,0,.2,0,.4,0,.6,0,0,0,.2,0,.3,0,0,0,.2,0,.3,0,.1,0,.2,0,.3,0,.8,0,1.7.4,2.3.3.4.8.7,1.2.9.3.1.6.3,1,.4.2,0,.5,0,.8.1.2,0,.4,0,.6.1.2,0,.4,0,.6,0,.4,0,.8.1,1.3.2.2,0,.4,0,.6,0,0,0,.2,0,.3,0,.2,0,.3,0,.5,0,.2,0,.3,0,.5,0,0,0,.2,0,.3,0,0,0,.2,0,.2,0,.2,0,.4,0,.6,0,0,0,.1,0,.2,0,.1,0,.3,0,.4.1.2,0,.4.1.6.2.2,0,.3.1.5.2,0,0,.2.1.2.2.2,0,.3.2.5.3.2.2.3.3.5.5,0,0,0,.1.2.2,0,0,0,0,0,0,0,0,0,0,.1-.1,0,0,0-.1.1-.2.4-.5.9-.9,1.4-1.2,0,0,.2,0,.3,0,.1,0,.2,0,.3-.1.2,0,.4,0,.6-.1.4,0,.8-.2,1.2-.3,0,0,.2,0,.3,0,.2,0,.3,0,.5,0,.2,0,.4,0,.6,0,.2,0,.5,0,.8,0,.2,0,.4,0,.7,0,.2,0,.4,0,.6,0,0,0,.1,0,.2,0,.3,0,.6-.1.9-.2,0,0,.2,0,.3,0,.3,0,.6-.2.8-.3.2,0,.5-.1.7-.2.2,0,.3-.2.5-.3.3-.2.6-.4.8-.7,0-.1.2-.4.2-.5,0,0,0-.2,0-.2,0-.4,0-.7,0-1.1,0-.1,0-.3,0-.4,0,0,0-.1,0-.2,0-.1,0-.3,0-.4,0,0,0-.1,0-.2,0,0,0,0,0-.1,0,0,0,0,0-.1,0,0,0-.2,0-.3,0-.1,0-.2,0-.3,0-.1,0-.2,0-.3,0-.4,0-.9,0-1.3,0-.1,0-.2,0-.3,0-.4,0-.8,0-1.1,0-1,0-2.1,0-3.1,0-.1,0-.2,0-.3,0,0,0,0,0,0,0,0,0-.2,0-.3,0,0,0-.1,0-.2,0,0,0-.2,0-.3,0-.2,0-.4,0-.5,0-.1,0-.2,0-.4,0,0,0-.1,0-.2,0,0,0-.1,0-.2,0,0,0-.1,0-.2,0,0,0-.2,0-.2,0,0,0-.1,0-.2,0-.4,0-.9,0-1.3,0-.1,0-.2,0-.3,0,0,0-.2,0-.3,0,0,0-.1,0-.1,0-.1,0-.3,0-.4ZM27,12.6c0,0,.1,0,.2-.1,0,0,0-.1.1-.2,0-.1.2-.2.3-.3,0,0,0,0,.1-.1,0,0,.2,0,.3,0,.2,0,.4,0,.5,0,0,0,.2,0,.2,0,.1,0,.3,0,.4,0,.1,0,.3,0,.4,0,.1,0,.2,0,.4,0,0,0,0,0,.1,0,.2,0,.4,0,.5,0h0s0,0,0,0c0,0,0,0,0,0,0,0,0,0,0,0-.2.2-.4.4-.6.6-.4.3-.7.7-1.1,1,0,0-.2.1-.2.2-.3.3-.6.7-.9,1-.1.1-.2.2-.3.3,0,0-.1.1-.2.2,0,0-.1.2-.2.3-.2.2-.4.4-.6.6,0,.1-.2.2-.3.3-.2.2-.4.4-.6.6-.4.4-.7.7-1.1,1.1-.1.1-.2.3-.4.4h0s0,0,0,0h0s0,0,0,0c0,0,0,0,0-.1,0-.1,0-.2,0-.3,0,0,0-.1,0-.2,0-.1,0-.2,0-.3,0,0,.1,0,.2-.1,0,0,.1-.2.3-.3.1,0,.3-.1.4-.2,0,0,.1-.1.2-.2.2-.1.4-.2.5-.4,0,0,0-.1.1-.2,0,0,0-.1.1-.2,0,0,0-.2,0-.3,0-.1,0-.2,0-.4,0-.1,0-.3,0-.4,0-.2-.1-.3-.2-.4,0,0,0-.1-.1-.2,0,0,0,0,0,0,0,0,0,0,0-.1.1-.2.2-.4.4-.5,0,0,0-.2.2-.2,0,0,.2-.1.3-.2,0,0,0-.1.1-.2,0,0,0-.1.1-.2,0,0,.1,0,.2-.1,0,0,0,0,.1-.1ZM28.2,22.8c0,.1,0,.2,0,.3,0,0,0,.1,0,.2,0,.2,0,.3,0,.5,0,.2,0,.4,0,.6,0,.2,0,.4,0,.6,0,.1,0,.3,0,.4,0,.1,0,.3,0,.4,0,.2,0,.4,0,.6,0,.2,0,.4,0,.5h0s0,0,0-.1c0-.2,0-.5,0-.7,0-.3,0-.6,0-1,0,0,0-.2,0-.2,0-.2,0-.4,0-.6,0,0,0-.1,0-.2,0-.2,0-.5,0-.7,0,0,0-.1-.1-.2h0s0,0,0,0c0,0,0,.2,0,.3,0,.2,0,.4,0,.6,0,.1,0,.2,0,.3,0,0,0,.2,0,.3,0,.1,0,.3,0,.4,0,.1,0,.3,0,.4,0,.3,0,.6,0,.9,0,0,0-.1-.1-.2,0,0,0-.2,0-.3,0-.2,0-.4,0-.5,0-.2,0-.3,0-.5,0-.2,0-.4,0-.6,0,0,0-.2,0-.2,0,0,0,0,0,0,0,.2,0,.4,0,.5,0,.3,0,.5,0,.8,0,.2,0,.3,0,.5h0s0,0,0,0h0s0,0,0-.1c0-.2,0-.5,0-.7,0-.2,0-.5,0-.7,0-.2,0-.3,0-.5,0-.2,0-.4,0-.6,0-1,0-1.9,0-2.8,0-.2,0-.3,0-.5,0-.1,0-.3,0-.4,0-.1,0-.2,0-.3,0,.1,0,.3,0,.4,0,.3,0,.5,0,.8h0s0,0,0-.1c0-.3,0-.5,0-.8h0s0,0,0,0c0,0,0,0,0,.1,0,0,0,.1,0,.2,0,.4,0,.8,0,1.2,0,0,0,.1,0,.2,0,.1,0,.2,0,.3,0,0,0,0,.2,0,0,0,0-.1,0-.2,0,0,0-.1,0-.2,0-.1,0-.2,0-.3,0-.3,0-.7,0-1h0s0,.2,0,.2c0,0,0,.2,0,.2,0,.1,0,.3,0,.5,0,.3,0,.5,0,.8,0,.3,0,.5,0,.8,0,.2,0,.3,0,.5ZM27,34h0s0,0,0,0c0,0-.1,0-.1,0-.3,0-.5,0-.8,0-.1,0-.3,0-.4,0,0,0-.2,0-.3,0-.3,0-.6,0-.9,0-.1,0-.3,0-.4,0-.2,0-.4,0-.7,0,0,0-.1,0-.1,0-.1,0-.4,0-.5,0,0,0-.2,0-.2,0-.2,0-.4,0-.6,0-.1,0-.3,0-.4,0,0,0,0,0-.1,0,0,0,0,0-.1,0-.2,0-.4,0-.6-.2,0,0,0,0,0,0,0-.1,1.3,0,1.5,0,.3,0,.6,0,.9,0,.4,0,.9,0,1.3,0,.2,0,.5,0,.7,0,.5,0,1.1,0,1.6,0,0,0,0,0,0,0,0,0,0-.1,0-.2,0-.3,0-.7,0-1,0-.2,0-.5,0-.7.3.1.2.5.2.8,0,.2,0,.4,0,.6,0,.1,0,.2,0,.3,0,.2,0,.3,0,.5ZM25.3,31.9c0,.1.5.6.5.7,0,0,0,0,0,0-.1,0-.3,0-.4,0-.3,0-.5,0-.8,0,0,0,0,0,0,0h0c0,0,0-.1,0-.1,0-.1.4-.6.4-.7,0,0,0,0,0-.1-.2,0-.4,0-.7,0-.1,0-.4,0-.5,0-.2,0-1-.1-1.1,0,0,0,0,0,0,.1,0,.2.2.3.3.5,0,0,.1.2.2.3h0s0,0,0,0c-.5,0-.9,0-1.4,0h0s.7-.8.7-.9c0,0,0,0,0,0,0,0-.2,0-.2,0-.1,0-.3,0-.4,0-.4,0-.8,0-1.2,0,0,0,.6-.6.6-.7.5-.5,1-1,1.5-1.5.2-.2.3-.3.5-.5,0,0,.1-.1.2-.1,0,0,0,0,0,0,.1,0,.2.2.3.3.1.2.3.3.4.5,0,0,.2.2.3.3.4.4.9.9,1.3,1.3.2.2.4.4.5.6,0,0,0,0,0,0-.1,0-.3,0-.4,0,0,0-.1,0-.2,0-.2,0-.4,0-.6,0,0,0,0,.2.1.2ZM23.9,32.6s.4-.6.4-.6c0,0,0,0,.1,0h0c0,0,.2,0,.2,0,0,.1-.4.7-.5.7,0,0-.2,0-.3,0h0s0,0,0,0ZM21.4,32.6c0,0-.2,0-.3,0,0-.1.6-.6.7-.7,0,0,.2,0,.2,0,0,.1-.5.6-.6.7ZM26.5,27.3c-.1,0-.3,0-.4,0-.1,0-.3,0-.4,0,0,0,0,0-.1,0-.1,0-.3,0-.4,0,0,0-.1,0-.2,0-.1,0-.3,0-.4,0,0,0,0,0-.1,0,0,0,0,0-.1,0,0,0-.2,0-.2,0,0,0,0,0,0,.1,0,.3-.2.6-.5.6-.2,0-.4-.2-.5-.4,0,0,0-.2,0-.2,0,0,0,0,0,0-.1,0-.2,0-.3,0,0,0,0,0,0,0-.3,0-.5,0-.8,0,0,0-.2,0-.2,0-.2,0-.4,0-.6,0,0,0-.2,0-.3,0-.3,0-.6,0-.9,0-.1,0-.2,0-.3,0,0,0-.2,0-.2,0,0,0,0-.1,0-.2,0-.2.1-.3.3-.4,0,0,.2-.2.3-.2.4-.3,1.1-.3,1.6-.2,0,0,.2,0,.3,0,.3,0,.6.1.9.3.2.1.3.3.5.4,0,0,0,0,.1,0,0,0,.2.2.3.2.2,0,.3-.2.4-.3.1,0,.3-.2.4-.3.4-.2.8-.4,1.2-.5.2,0,.3,0,.5-.1,0,0,.2,0,.3,0,.1,0,.3,0,.4,0,.2,0,.4.1.6.3,0,0,.1.2.2.3.1.1.3.3.3.4,0,0,0,0,0,0,0,0-.1,0-.2,0-.3,0-.7,0-1,0ZM19,25.2c0-.1,0-.3,0-.5,0-.2,0-.3,0-.5,0-.3,0-.5,0-.8,0-.2,0-.3,0-.5,0-.1,0-.3,0-.4,0-.1,0-.3,0-.4,0-.2,0-.4,0-.6,0-.1,0-.2,0-.3,0,0,0-.1,0-.2,0-.2,0-.5,0-.7,0-.2,0-.4,0-.6,0-.2.5-.7.6-.7h0c0,.1,0,.3,0,.4,0,.2,0,.3,0,.5,0,.1,0,.2,0,.3,0,.2,0,.4,0,.6,0,0,0,.2,0,.3,0,.1,0,.2,0,.3,0,.3,0,.6,0,.9,0,.3,0,.7,0,1,0,.1,0,.2,0,.4,0,.2,0,.5,0,.7,0,.1,0,.2,0,.3,0,.2,0,.4,0,.6,0,.2,0,.6,0,.8,0,0,0,.1-.1.2,0,0-.1.1-.2.2,0,0-.1.1-.2.2,0,.1-.1.2-.2.3h0s0,0,0,0c0-.3,0-.6,0-1,0-.2,0-.4,0-.6,0-.1,0-.3,0-.4ZM20,24.1c0-.1,0-.3,0-.4,0-.3,0-.7,0-1,0-.2,0-.3,0-.5,0-.2,0-.4,0-.7,0-.3,0-.5,0-.8,0-.5,0-.9,0-1.3,0-.1,0-.4,0-.5,0,0,.2,0,.3,0,.3,0,.5,0,.8,0,.2,0,.4,0,.6,0,.1,0,.2,0,.3,0,.1,0,.2,0,.3.1.4.1.7.3,1,.6.1.2.1.4.1.7,0,.7,0,1.5,0,2.2,0,.5,0,.9,0,1.4,0,.2,0,.3,0,.5,0,.4,0,.8,0,1.1,0,.3,0,.5,0,.8,0,.2,0,.4-.1.6h0s-.4-.3-.5-.3c-.2-.1-.6-.3-.8-.3-.2,0-.4,0-.6,0-.2,0-.6-.1-.7,0,0,0,0,0-.1,0,0,0-.1,0-.2,0,0,0-.1,0-.2,0,0,0-.1,0-.2,0,0-.2,0-.3,0-.4,0-.1,0-.2,0-.4,0-.1,0-.3,0-.4,0-.3,0-.6,0-.9ZM23.4,16.2c0,0,0-.1,0-.2,0,0,0,0,.1-.1,0,0,0,0,.1,0,0,0,.4.3.4.4,0,.1-.3.3-.4.3,0,0,0,0-.1,0,0,0,0,0-.1,0,0,0,0-.2,0-.3ZM23.2,15.9c0,0-.1.2-.2.2,0,0-.1,0-.1,0-.1,0-.2-.3-.1-.4,0,0,0,0,0-.1,0-.1,0-.2.1-.3.1,0,.5.4.5.6,0,0-.1.2-.2.2ZM23.2,16.8h0s0,0,0,0c-.2,0-.5-.1-.3-.4,0,0,0,0,.1,0,0,0,0,.1.1.2,0,0,.2.1.2.2ZM22.1,14.7s.1-.1.2-.2h0c.2.1.4.4.2.6,0,0-.1.1-.2.1-.2,0-.1-.2-.1-.3,0,0,0-.1,0-.2ZM22.5,14.4h0c0,0,0,0,0,0,.2,0,.3,0,.5-.2,0,0,.1,0,.2,0,0,.1-.3.4-.5.4-.1,0-.2-.2-.3-.3ZM22.2,15.8s0,0,0,0c0,0,.4.3.4.4,0,0-.2.3-.3.3,0,0,0,0-.1-.1,0-.2-.1-.4,0-.6ZM24.3,15.4s0,0,.1,0c.1,0,.3.3.2.4,0,0-.1.2-.2.2,0,0-.1,0-.2,0,0,0,0-.2,0-.3,0,0,.1,0,.1-.2,0-.1,0-.2,0-.3ZM24.6,14.7c0,0-.1.1-.2.1,0,0-.1-.1-.2-.2,0,0-.2-.1-.2-.2,0,0,0,0,.1-.1h0c.1,0,.2,0,.3.1.1,0,.2,0,.3.1,0,0,0,0,0,0,0,0,0,.1-.2.1ZM24.4,16.7c0,.1-.3.2-.4.1-.1,0,.1-.3.2-.3,0,0,.2,0,.2.2ZM27.1,19.4c0,0,0,.2,0,.3,0,.3,0,.6,0,.9,0,.1,0,.3,0,.4,0,.4,0,.8,0,1.2,0,0,0,.2,0,.3,0,.2,0,.5,0,.7,0,.1,0,.2,0,.4,0,.2,0,.4,0,.6,0,0,0,.2,0,.3,0,.2,0,.3,0,.5,0,.1,0,.3,0,.4,0,.2,0,.5,0,.8,0,0-.2,0-.3,0-.2,0-.6-.1-.8,0,0,0,0,0-.1,0,0,0,0,0-.1,0,0,0-.3,0-.4,0-.2,0-.3,0-.5.2-.2,0-.3.1-.5.2-.2,0-.3.2-.5.3,0,0,0,0,0,0-.2-.3-.2-.8-.1-1.2,0-.2,0-.3,0-.4,0,0,0,0,0-.1,0,0,0-.2,0-.2,0-.3,0-.6,0-.9,0-.3,0-.6,0-.9,0-.2,0-.4,0-.6,0,0,0-.2,0-.3,0-.2,0-.4,0-.7,0-.2,0-.3,0-.5,0-.3,0-.6,0-.9,0-.1,0-.2,0-.3,0-.1.2-.2.4-.3.5-.3,1.1-.4,1.7-.5.1,0,.3,0,.4,0,.1,0,.2,0,.3,0,0,0,.2,0,.3,0,0,0,0,.1,0,.1,0,.1,0,.2,0,.3ZM25.4,13.7h0s0,0,0,0c0,0,0-.1,0-.2,0-.2.2-.2.3-.4.2.2,0,.4-.2.5ZM25.6,15.6c0,.1,0,.2-.2.3,0,0,0,0,0,0,0-.1.2-.2.2-.3h0ZM25.3,15.4s0,0-.1,0c0,0,0,0,0,0,0,0,0-.6,0-.6,0,0,.1-.1.1-.2.1,0,.1.1.2.2,0,.2.1.4,0,.6ZM25.1,16.3s0,0,0,0c0,0-.2.2-.3.1,0,0,0-.2,0-.2,0,0,.2,0,.2,0ZM26.3,12.4c0,0,.1-.2.2-.2,0,0,.1-.1.2-.2.1,0,.2,0,.4,0h0c-.2,0-.6.6-.7.8,0,0-.1.2-.2.2,0,0-.1,0-.1,0-.1,0,0-.2,0-.3,0,0,0-.1,0-.1,0,0,0,0,.1,0,0,0,.1,0,.2-.1ZM25.2,12.8c0,0,0-.2,0-.3,0-.1.2-.1.3-.2,0,0,0-.2.1-.2,0,0,.1,0,.2-.1,0,0,.1,0,.2,0,0,0-.1.2-.1.2,0,0-.1.2-.2.3,0,0-.1.2-.2.3,0,0,0,.1-.1.2,0,0,0,0-.1,0,0,0,0,0-.1.1,0,0,0,0-.1.1,0,0,0,.2-.2.3,0,0-.2.1-.3,0h0s.2-.4.3-.4c0,0,.1,0,.1,0,0,0,0-.1,0-.2,0,0,0,0,.1-.1ZM23.9,13.1c0,0,0-.1,0-.2,0-.1,0-.2,0-.4,0,0,0-.1.1-.2,0,0,0-.2,0-.3,0,0,.5,0,.6,0,0,0,.2,0,.3,0h0s0,0,0,0c-.1.2-.2.4-.3.6,0,0,0,.1-.1.2,0,0,0,.2-.1.2,0,.2-.3.4-.5.5h0s0-.2,0-.2c0,0,0-.1,0-.2ZM24.1,15c0,.1-.1.2-.2.3,0,0-.2.2-.3.2-.1,0-.3-.5-.3-.6,0,0,.2-.2.2-.3,0,0,0,0,0,0,0,0,.1,0,.2,0,.1,0,.4.3.4.4ZM22.6,12c0,0,.3,0,.4,0,.1,0,.4,0,.5,0,0,0,0,.1,0,.2,0,0,0,.1,0,.2,0,0,0,.1,0,.2,0,.3,0,.5,0,.8,0,.2,0,.3,0,.5h0c-.2,0-.4-.7-.5-.8,0,0-.1-.1-.2-.2-.1-.2-.3-.6-.2-.8ZM21.3,12.1s0,0,0,0,0,0,0,0c0,0,.3-.1.4-.2,0,0,.2,0,.3,0,.2.1.3.5.4.7,0,.1.1.3.2.4,0,0,0,.1.1.2,0,0,0,.2,0,.2,0,0,0,.2,0,.2,0,0-.1,0-.2,0,0,0-1.3-1.5-1.3-1.6,0,0,0,0,0,0ZM20.7,12c.1,0,.2,0,.3.1.1.1.2.3.3.4,0,0,0,.2.1.2,0,0,.2.2.2.3,0,0,.1.2.2.3,0,0,0,0,0,.1,0,0,.1,0,.2.1.1.1.2.2.3.4,0,0,0,0,0,0,0,0-.2,0-.3,0-.1-.1-.2-.2-.3-.3,0,0-.1,0-.2-.2-.1-.2-.2-.3-.3-.5,0,0-.2,0-.3-.2,0,0,0,0,0,0,0,0-.1-.2-.2-.3,0-.1-.2-.2-.3-.3,0,0,0,0,0,0,0,0,0,0,0,0,0,0,.1-.1.2-.2ZM17.5,11.9c.2,0,.4,0,.5,0,.1,0,.2,0,.4,0,.1,0,.2,0,.3,0h.4c0,0,.1,0,.2,0,.1,0,.3,0,.4,0,.1,0,.3.2.4.3.2.2.4.3.5.5.1.1.2.3.3.4.1.2.3.3.5.4,0,0,.1.2.2.3,0,0,0,0,.1.1,0,0,.2.2.2.3,0,0-.1.1-.2.1-.1.1-.2.3-.3.5,0,0,0,.2,0,.2,0,.1,0,.2,0,.4,0,0,0,.2,0,.3,0,0,0,.2.1.3,0,.1,0,.2.1.3,0,0,.1,0,.2.1,0,0,0,.1.2.2,0,0,.1,0,.2,0,0,0,.2.1.3.2.1,0,.2.1.3.2,0,0,.1.2.2.3,0,0,.2.1.2.2,0,0,0,.1,0,.2,0,0,0,.1,0,.2,0,.1,0,.4,0,.5-.1,0-.4-.3-.5-.4-.2-.2-.4-.4-.6-.6-.1-.2-.3-.3-.4-.5-.3-.3-.6-.6-.9-.9-.2-.2-.3-.3-.5-.5,0,0-.1-.2-.2-.2-.5-.5-1.1-1-1.6-1.6-.1-.2-.3-.3-.4-.5-.3-.3-.6-.6-.9-.9-.2-.1-.5-.3-.5-.6.2,0,.5,0,.7,0ZM21.9,15.6c-.2,0-.1-.3-.1-.4.1,0,.4.3.1.4ZM14.1,28.1c-.2.2-.4.5-.7.7-.3.3-.7.7-1,1-.1.1-.3.2-.4.4h0s0,0,0,0c0-.1,0-.2,0-.4,0-.4,0-.7,0-1.1,0-.3,0-.6,0-.9,0,0,0-.2,0-.3,0-.3,0-.6,0-.9,0-.1,0-.2,0-.4,0-.2,0-.4,0-.5,0-.1,0-.2,0-.3,0-.3,0-.6,0-.9,0,0,0-.2,0-.3,0-.1,0-.2,0-.3,0-.3,0-.5,0-.8,0-.2,0-.4,0-.6,0-.4,0-.8,0-1.2,0-.2,0-.4,0-.6,0-.1,0-.2,0-.3,0-.4,0-.8,0-1.2,0,0,0-.2,0-.3,0-.1,0-.2,0-.3,0-.1,0-.2,0-.4,0,0,0-.1,0-.2,0-.2,0-.4,0-.6.2,0,.3.2.4.4.3.3.6.6.8.8,0,.1.2.2.3.3.2.2.4.4.6.6,0,0,.1.2.2.2.1.1.3.3.4.4,0,0,0,.1.2.2.3.3.7.6,1,.9.3.3.6.7.9,1,.2.2,1.5,1.4,1.4,1.6,0,0,0,0,0,.1-.1.3-.5.5-.7.7,0,0-.1.2-.2.2-.2.2-.4.4-.6.6-.3.3-.5.5-.8.8-.2.2-.3.3-.5.5,0,0,0,0-.1.1-.4.4-.9.8-1.3,1.2ZM21,35.9c-.1,0-.6,0-.7,0,0,0,0,0,0,.1,0,.4,0,.9,0,1.3,0,.2,0,.5,0,.7,0,0,0,0,0,.1h0c-.1,0-.3,0-.4,0-.1,0-.2,0-.4,0,0,0-.2,0-.3,0-.2,0-.3,0-.5,0,0,0-.2,0-.2,0-.4,0-.8,0-1.1-.1-.2,0-.3,0-.5,0-.1,0-.3,0-.4,0,0,0-.1,0-.2,0,0,0-.2,0-.3,0-.2,0-.4,0-.6-.1-.2,0-.3,0-.5,0h0s0,0,0,0c0-.1.3-.3.4-.4.1-.1.2-.2.3-.3.2-.2.4-.3.5-.5,0,0,.2-.2.3-.3,0,0,.1-.2.2-.2.5-.4.9-.9,1.4-1.3.3-.3.5-.6.8-.8.4-.4.8-.7,1.1-1.1.1-.1.2-.2.3-.3,0,0,0,.5,0,.6,0,.2,0,.4,0,.6,0,.1,0,.3,0,.4,0,.1.1.2.2.3,0,0,0,.1.1.2.1,0,.4,0,.5,0,.2,0,.5,0,.7,0,0,.2-.1.4-.2.5,0,.2-.2.5-.3.7,0,0,0,.2-.1.3,0,0-.1,0-.2,0,0,0,0,0,0,0ZM22.2,38.8c-.2,0-.3-.1-.5-.2-.1,0-.3,0-.4-.1h0s0,0,0,0c0,0,0,0,0,0,.2,0,1.4,0,1.5,0,0,0,0-.3,0-.3,0-.5,0-1.2.4-1.5,0,0,.1,0,.2,0,.1,0,.5,0,.4.2,0,0,0,0,0,0-.3,0-.4.2-.5.5-.1.2,0,.5,0,.8,0,.3,0,.5,0,.8h0s-.2,0-.2,0c0,0-.2,0-.2,0-.2,0-.4,0-.6,0ZM24.3,38.8c0,.1-.2.2-.3.3,0,0-.1.1-.2.2-.1.1-.3.3-.4.5h0c-.1-.1-.2-.2-.3-.3,0,0-.3-.2-.4-.3h0s0,0,0,0h0s0,0,0,0c0,0,0,0,0,0,0,0,.1,0,.2,0,.2,0,.4,0,.6,0,0,0,0,0,0,0,0,0,0-.2,0-.2,0,0,0-.2,0-.2,0,0,0-.2,0-.2,0-.2,0-.3,0-.5,0,0,0-.2,0-.3,0-.1,0-.3.1-.3,0,0,.2,0,.3-.1,0,0,0,0,0,0,0,.1,0,.3,0,.4,0,.3,0,.6,0,.9,0,0,0,.1,0,.2,0,0,0,.2.1.3,0,0,0,0,0,0ZM25.3,38.4c0,0-.1,0-.2,0-.2,0-.3.1-.5.2,0,0,0,0,0,0,0,0-.1-.2-.1-.3,0,0,.2,0,.2,0,.2,0,.4,0,.6,0h0ZM25.9,35.8c-.1,0-.2,0-.3-.1,0,0,0-.2-.1-.3,0-.2-.1-.3-.2-.5,0-.1-.1-.2-.1-.4,0,0,0-.1.1-.1,0,0,0,0,.1,0,0,0,0,.1,0,.2,0,.2.1.3.1.5,0,.2.1.4.2.5,0,0,0,.2,0,.2ZM27,37.9c0,0-.2,0-.3,0,0-.4,0-.8,0-1.3,0-.1,0-.3,0-.4,0,0,0,0,0,0,0,0,.2,0,.2,0,0,0,0,.2,0,.2,0,0,0,.2,0,.3,0,.1,0,.3,0,.4,0,.2,0,.6,0,.7ZM31.9,37.3c0,0-.1,0-.2,0,0,0-.2,0-.3,0-.1,0-.3,0-.4,0,0,0-.2,0-.3,0,0,0-.1,0-.2,0,0,0,0,0-.1,0,0,0,0,0-.1,0,0,0-.2,0-.3,0,0,0,0,0-.1,0-.2,0-.4,0-.5,0,0,0-.1,0-.2,0,0,0-.1,0-.2,0,0,0-.2,0-.2,0-.1,0-.2,0-.3,0,0,0,0,0-.1,0-.1,0-.2,0-.3,0,0,0-.2,0-.2,0-.1,0-.4,0-.4,0-.1,0,0-1.1,0-1.3,0,0,0-.2,0-.3,0-.1,0-.5-.1-.4-.1,0-.3,0-.4,0-.1,0-.4,0-.5,0-.1-.1-.2-.5-.2-.7,0-.2-.2-.5-.3-.7,0,0,0,0,0,0,0,0,.3,0,.3,0,.2,0,1.1,0,1.1-.1,0,0,0-.3,0-.4,0-.2,0-.3,0-.5,0-.2,0-.5,0-.8.6.6,1.2,1.2,1.8,1.8,0,0,.1.1.2.2.1.1.3.3.5.4.4.4.8.8,1.2,1.2.3.3.6.6.9.9,0,0,.2.1.2.2,0,0,0,0-.1.1ZM35.1,22.1c0,.2,0,.3,0,.5,0,0,0,.2,0,.3,0,.2,0,.4,0,.6,0,0,0,.1,0,.2,0,.1,0,.3,0,.4,0,.2,0,.4,0,.5,0,.2,0,.4,0,.7,0,.1,0,.3,0,.4,0,0,0,.1,0,.1,0,.1,0,.3,0,.4,0,.1,0,.2,0,.3,0,0,0,.2,0,.2,0,.2,0,.3,0,.5,0,.2,0,.5,0,.8,0,0,0,.1,0,.2,0,.1,0,.3,0,.4,0,0,0,.2,0,.2,0,0,0,.2,0,.2,0,.1,0,.2,0,.3,0,.1,0,.7,0,.7s-.6-.6-.7-.7c-.7-.7-1.3-1.3-2-2-.1-.1-.2-.2-.3-.3,0,0-.2-.2-.3-.3,0,0,0-.1-.1-.2-.6-.6-1.3-1.2-1.9-1.9-.1-.1-.9-.9-.9-1,0,0,0,0,0,0,0-.2.3-.3.4-.4.1-.1.2-.3.4-.4.1-.1.2-.2.4-.4,0,0,0,0,.1-.1.1-.1.2-.2.3-.3.1,0,.2-.2.3-.3,0-.1.2-.2.3-.3.1-.1.2-.2.3-.3.1-.1.3-.3.4-.4.2-.2.3-.3.5-.5.3-.3.6-.7.9-1,.5-.5,1-.9,1.4-1.4.1-.1.3-.2.4-.4,0,.1,0,.4,0,.6,0,.4,0,.8,0,1.1,0,.2,0,.4,0,.6,0,.2,0,.4,0,.6,0,.1,0,.2,0,.3,0,0,0,.1,0,.2,0,0,0,.1,0,.2,0,0,0,.1,0,.2,0,.3,0,.6,0,.9Z"/>
  <path class="st0" d="M27.6,20.7c0,.1,0,.2,0,.2h0c0,0,0-.2,0-.2Z"/>
  <path class="st0" d="M27.6,21.7c0,0,0,0-.1-.1,0,.1,0,.3,0,.5,0,.2,0,.4,0,.6,0,.2,0,.3,0,.5,0,0,0,.1,0,.2,0,0,0,0,.1,0,.1-.2,0-.7,0-1,0-.2,0-.4,0-.6Z"/>
  <path class="st0" d="M27.9,21.9c0,.2,0,.4,0,.6,0,.2,0,.3,0,.4h0c.1,0,.2-.8.1-.9,0,0,0,0-.1,0Z"/>
  <path class="st0" d="M24.1,23.4c0,0,.2,0,.2-.1.2-.1.4-.2.6-.3.1,0,.2,0,.4-.1.2,0,.4-.1.6-.2.2,0,.3,0,.5-.2,0,0,.1-.1.1-.2,0-.1,0-.1-.2-.2h0c0,0-.2,0-.3.1-.2,0-.4.1-.5.2-.5.2-1,.4-1.4.7,0,0-.2.2-.1.2,0,0,0,0,0,0Z"/>
  <path class="st0" d="M22.5,22.9c-.6-.3-1.2-.7-1.9-.7h0c-.2,0-.2.3-.1.4,0,0,.3,0,.4,0,0,0,.2,0,.3,0,.3,0,.5.1.7.2.2,0,.3.1.5.2.1,0,.6.4.7.4,0,0,0,0,0,0,0,0,0,0,0,0,0,0,0,0,0,0,0-.2-.5-.4-.7-.5Z"/>
  <path class="st0" d="M26.2,24.1c-.3,0-.5.2-.8.3,0,0-.1,0-.2.1-.2,0-.4.2-.6.3-.2.1-.3.2-.5.3,0,0-.1.1-.1.2,0,0,.2,0,.2,0,.4-.3.8-.4,1.3-.6.1,0,.3,0,.4-.1.2,0,.3,0,.5-.1.1,0,.1-.3,0-.3,0,0-.1,0-.2,0Z"/>
  <path class="st0" d="M23.1,25.3c-.1-.1-.3-.3-.5-.4,0,0-.1,0-.2,0-.3-.1-.5-.2-.8-.3,0,0-.2,0-.3-.1-.1,0-.2,0-.4,0-.1,0-.2,0-.3,0h0c-.2,0-.2.3,0,.4,0,0,0,0,0,0,.2,0,.4,0,.6,0,.2,0,.3,0,.5.1.1,0,.2,0,.3,0,.3,0,.6.2.9.3.1,0,.2.2.4.2,0,0,0-.1-.1-.2Z"/>
  <path class="st0" d="M3.4,19c.4,0,.5,0,.6-.3h.1s-.3,1.2-.3,1.2h-.1c0-.3,0-.4-.5-.5l-2.6-.6v.5c-.2.5-.1.7.2.8h0C.8,20.3,0,20.1,0,20.1h0c0-.1,0-.2.1-.3,0,0,0-.2.1-.3l.4-1.8c0-.3,0-.4,0-.6h0c0-.1.8,0,.8,0h0c-.3,0-.5.1-.7.7v.5c-.1,0,2.5.6,2.5.6Z"/>
  <path class="st0" d="M3.5,15.1l.9.5c.4.2.6.2.7-.1h0s-.6,1.2-.6,1.2h0c.1-.3,0-.4-.3-.7l-2-1c-.4-.2-.5-.2-.7.1h0s.6-1.2.6-1.2h0c-.1.3,0,.5.3.7l.9.4.8-1.7-.9-.4c-.4-.2-.5-.2-.7.1h0s.6-1.2.6-1.2h0c-.1.3,0,.5.3.7l2,1c.4.2.5.2.7-.1h0s-.6,1.2-.6,1.2h0c.1-.3,0-.4-.3-.7l-.9-.5s-.8,1.7-.8,1.7Z"/>
  <path class="st0" d="M7.7,9.3h0c-.3,0-.3,0-.6.2l-.6.7,1,.8c.1.1.2.1.4,0l.4-.5c.3-.4.4-.5.2-1h0c0,0,.4.5.4.5l-1.6,2h0c.2-.3.2-.4-.2-.7l-1.7-1.4c-.3-.3-.5-.3-.7,0h0c0,0,1.6-2,1.6-2l.5.4h0c-.4-.1-.5,0-.7.2l-.7.8,1.2,1,.6-.8c.2-.2.2-.3,0-.5h0c0,0,.7.5.7.5Z"/>
  <path class="st0" d="M14.4,5.3c-.1.5-.3.9-.7,1.1-.7.4-1.3,0-1.7-.5l-.9-1.5c-.2-.4-.4-.4-.6-.3h0c0,0,1.1-.7,1.1-.7h0c-.3.2-.3.4,0,.8l.9,1.6c.3.5.7.7,1.2.4.4-.2.6-.6.6-1l-1-1.9c-.2-.4-.4-.4-.6-.3h0c0,0,1.1-.7,1.1-.7h0c-.3.2-.3.4,0,.8l1.1,1.9c.2.4.4.4.6.3h0c0,0-.8.5-.8.5,0,0-.2-.4-.2-.4Z"/>
  <path class="st0" d="M20,3.9h-.1s-3.2-2.3-3.2-2.3h0s.6,2.4.6,2.4c0,.3.3.4.6.4h0c0,.1-1,.4-1,.4h0c.3-.2.4-.3.3-.8l-.5-2c0-.4-.3-.6-.7-.5h0c0-.1.9-.3.9-.3l2.8,2.1h0s-.5-2-.5-2c-.1-.5-.3-.5-.6-.5h0c0-.1,1-.4,1-.4h0c-.3.2-.4.4-.3.8,0,0,.7,2.8.7,2.8Z"/>
  <path class="st0" d="M22.9,2.9c0,.4.1.6.4.5h0c0,.1-1.3.2-1.3.2h0c.3-.1.4-.2.4-.7V.7c-.1-.4-.2-.6-.5-.5h0c0-.1,1.3-.2,1.3-.2h0c-.3.1-.4.3-.4.7,0,0,.1,2.2.1,2.2Z"/>
  <path class="st0" d="M26.5,3.8h0s-.7-3-.7-3c-.1-.5-.2-.6-.5-.7h0C25.2,0,26.5.2,26.5.2h0c-.3,0-.4.2-.3.5l.6,2.4,1.1-2.1c.2-.3.1-.5-.2-.5h0c0-.1,1,0,1,0h0c-.3,0-.5.3-.7.7,0,0-1.4,2.6-1.4,2.6Z"/>
  <path class="st0" d="M32.1,3.9h0c0-.3,0-.4-.3-.5l-.8-.3-.4,1.2c0,.2,0,.2.2.3l.6.2c.5.2.6.2,1-.2h0s-.4.6-.4.6l-2.4-.9h0c.3,0,.4,0,.6-.5l.8-2.1c.2-.4.1-.6-.2-.7h0c0,0,2.4.8,2.4.8l-.2.6h0c0-.4,0-.5-.4-.6l-1-.4-.5,1.4.9.3c.2,0,.3,0,.5-.2h0s-.3.8-.3.8Z"/>
  <path class="st0" d="M36.1,3.6l.3.2c.5.3.6.8.3,1.2-.2.3-.6.6-1.1.2l-.4-.2.9-1.4ZM35.1,5.1l.2.2c.5.4.2,1.2.3,2.2l.6.4h0c-.5-.4,0-1.5-.3-2.3.5.2.9,0,1.1-.3.3-.4.2-1-.5-1.4l-1.2-.8h0c.2.2.3.4,0,.8l-1.2,1.9c-.3.4-.4.4-.6.2h0c0,0,1.1.8,1.1.8h0c-.2-.2-.3-.4,0-.8,0,0,.5-.8.5-.8Z"/>
  <path class="st0" d="M40.8,8.3h0c.3-.5.2-.9,0-1.1-.3-.3-.6-.3-.8,0-.5.5,0,1.2,0,1.9,0,.4-.1.6-.3.7-.4.4-1,.4-1.4,0-.3-.3-.4-.6-.4-.7,0,0-.1,0-.2,0h0c0,0,.7-.7.7-.7h0c-.5.5-.2,1.1,0,1.3.3.3.7.3,1,0,.4-.4,0-1.3,0-1.9,0-.3.1-.5.3-.7.4-.4.9-.4,1.3,0,.3.3.3.5.4.6,0,0,0,0,.1,0h0c0,0-.6.7-.6.7h0Z"/>
  <path class="st0" d="M41.1,12.1c-.4.2-.4.4-.2.7h0c0,0-.7-1-.7-1h0c.2.2.3.2.7,0l1.8-1.3c.4-.3.4-.4.2-.7h0c0,0,.7,1,.7,1h0c-.2-.2-.3-.2-.7,0,0,0-1.8,1.3-1.8,1.3Z"/>
  <path class="st0" d="M42.9,15.3c-.4.2-.5.3-.3.6h0s-.5-1.1-.5-1.1h0c.1.2.2.3.7,0l2.5-1.1-.2-.5c-.2-.4-.4-.6-.8-.4h0c0,0,.7-.4.7-.4h0c0,.2,0,.2,0,.3,0,0,0,.2.1.3l.8,1.7c.1.3.2.4.4.5h0c0,.1-.7.4-.7.4h0c.2-.2.4-.4.1-1l-.2-.5s-2.5,1.1-2.5,1.1Z"/>
  <path class="st0" d="M44.2,19.7c-.4,0-.5.2-.5.5h-.1s-.3-1.2-.3-1.2h.1c0,.2.1.4.6.3l1.1-.2,1-1c.3-.3.4-.4.3-.7h.1s.3,1.3.3,1.3h-.1c0-.4-.2-.4-.4-.2l-.9.9,1,.4c.3.1.6,0,.5-.2h.1s.2.9.2.9h-.1c0-.2-.2-.3-.5-.4l-1.4-.5s-1.1.2-1.1.2Z"/>
  <path class="st0" d="M2.2,28.7c1-.3,1.8,0,2,.8.2.7-.2,1.4-1.3,1.8-.8.2-1.8,0-2-.8-.2-.8.3-1.5,1.3-1.8ZM2,28.1c-1,.3-1.6,1.3-1.3,2.3.3,1,1.3,1.6,2.3,1.3,1-.3,1.5-1.3,1.3-2.3-.3-1-1.3-1.6-2.3-1.3Z"/>
  <path class="st0" d="M3.4,35c-.4.2-.4.4-.3.6h0c0,0-.6-1.1-.6-1.1h0c.1.2.3.2.7,0l1.9-1.1c.4-.2.4-.4.3-.6h0c0,0,1.2,2.1,1.2,2.1l-.5.3h0c.3-.4.3-.5.1-.8l-.4-.8-1.3.7.5.8c.1.2.3.3.6.1h0c0,0-.9.6-.9.6h0c.2-.2.3-.4.2-.6l-.5-.8s-.9.5-.9.5Z"/>
  <path class="st0" d="M10.2,41.9h0c.1-.3.1-.4-.2-.6l-.7-.6-.8,1c-.1.1-.1.2,0,.4l.5.4c.4.3.5.4,1,.2h0c0,0-.5.5-.5.5l-2-1.6h0c.2,0,.4.1.7-.3l1.4-1.7c.3-.3.3-.5,0-.7h0c0,0,2,1.5,2,1.5l-.4.5h0c.2-.4.1-.5-.2-.7l-.8-.6-1,1.2.8.6c.2.2.3.2.5,0h0c0,0-.5.7-.5.7Z"/>
  <path class="st0" d="M14.3,42l.6.3c1,.5,1,1.4.7,2.2-.4.9-1.1,1.2-1.9.8l-.3-.2c-.3-.1-.4-.3-.1-.8l1.1-2.4ZM12.7,44.3c-.2.4-.3.5-.6.3h0c0,0,1.5.8,1.5.8,1.3.6,2.1,0,2.5-.7.4-.8.2-1.9-1-2.5l-1.5-.7h0c.3.2.3.4.1.8,0,0-.9,2-.9,2Z"/>
  <path class="st0" d="M18.9,46.5c0,.4,0,.6.3.6h0c0,.1-1.2-.2-1.2-.2h0c.3,0,.4-.1.5-.6l.5-2.2c0-.4,0-.6-.3-.6h0c0-.1,1.2.2,1.2.2h0c-.3,0-.4.2-.5.6,0,0-.5,2.2-.5,2.2Z"/>
  <path class="st0" d="M25.4,47.6h-.1s-2.5-3.1-2.5-3.1h0v2.5c0,.4.2.5.5.5h0c0,.1-1.1.1-1.1.1h0c.3-.1.4-.2.4-.7v-2.1c0-.4-.1-.6-.6-.7h0c0-.1.9-.1.9-.1l2.2,2.7h0v-2.1c0-.5-.2-.6-.5-.6h0c0-.1,1.1-.1,1.1-.1h0c-.3.1-.5.3-.5.7,0,0,0,2.9,0,2.9Z"/>
  <path class="st0" d="M29.1,45.1l-.4-1.5h.3c.6-.2.9,0,1,.4.1.4-.1.8-.6.9h-.4ZM29,46.4c.1.4,0,.6-.2.6h0c0,.1,1.6-.3,1.6-.3.6-.2,1-.6.9-1.1-.1-.5-.6-.8-1.1-.7h0c.4-.3.6-.6.5-1-.1-.4-.6-.7-1.4-.5l-1.3.4h0c.3,0,.4.1.5.5,0,0,.6,2.1.6,2.1ZM29.1,45.2h.3c.6-.3,1.1,0,1.2.5.1.5-.1.8-.5.9h-.3c-.3.2-.4,0-.5-.4,0,0-.3-1-.3-1Z"/>
  <path class="st0" d="M36.3,43.5c0,.5-.3.9-.7,1.1-.7.4-1.3,0-1.7-.4l-.9-1.5c-.2-.4-.4-.4-.6-.3h0c0,0,1.1-.7,1.1-.7h0c-.3.2-.3.4,0,.8l.9,1.6c.3.5.7.7,1.3.4.4-.2.6-.6.6-1l-1.1-1.8c-.2-.4-.4-.4-.6-.3h0c0,0,1.1-.7,1.1-.7h0c-.3.2-.3.4,0,.8l1.1,1.9c.2.4.4.4.6.3h0c0,0-.8.5-.8.5,0,0-.2-.4-.2-.4Z"/>
  <path class="st0" d="M37.7,38.7l.3-.3c.4-.4.9-.4,1.2,0,.3.3.4.7,0,1.2l-.3.3s-1.2-1.1-1.2-1.1ZM39,40l.2-.2c.5-.5,1.2,0,2.2,0l.5-.5h0c-.4.3-1.4-.3-2.2-.2.3-.5.2-.9-.1-1.1-.3-.3-.9-.4-1.5.2l-1,1h0c.2-.1.3-.2.7.2l1.6,1.6c.3.3.3.5.1.7h0c0,0,.9-.8.9-.8h0c-.2.1-.4.1-.7-.2,0,0-.7-.7-.7-.7Z"/>
  <path class="st0" d="M44.8,35c0,.2-.4.8-.4.9-.8,1.3-1.9,1.3-2.6.9-1.1-.7-1.2-1.8-.7-2.6.3-.4.5-.5.6-.7,0,0,0-.2,0-.2h0c0,0,.9.4.9.4h0c-.6-.2-1.2.2-1.4.6-.4.6-.1,1.4.7,1.9.9.5,1.9.4,2.3-.3.1-.2.3-.5,0-.7l-.3-.2c-.4-.2-.6-.2-.7,0h0c0,.1,0,0,0,0l.7-1.2h0c-.2.4,0,.5.2.7,0,0,.8.5.8.5Z"/>
  <path class="st0" d="M44.7,30.9l1,.3c.4.1.6,0,.7-.2h.1s-.4,1.3-.4,1.3h-.1c0-.3,0-.4-.4-.6l-2.1-.6c-.4-.1-.6,0-.7.2h0s.4-1.3.4-1.3h.1c0,.3,0,.5.4.6l1,.3.5-1.9-1-.3c-.4-.1-.6,0-.7.2h-.1s.4-1.2.4-1.2h.1c0,.3,0,.5.4.6l2.1.6c.4.1.6,0,.7-.2h.1s-.4,1.2-.4,1.2h-.1c0-.3,0-.4-.4-.6l-1-.3s-.5,1.9-.5,1.9Z"/>
  <path class="st0" d="M1.9,24.2c0,.2-.1.3-.3.3-.2,0-.3-.1-.3-.3,0-.2.1-.3.3-.3s.3.1.3.3Z"/>
  <path class="st0" d="M46.2,24.2c0,.2-.1.3-.3.3s-.3-.1-.3-.3c0-.2.1-.3.3-.3.2,0,.3.1.3.3Z"/>
</svg>